<?xml version="1.0" ?><svg viewBox="0 0 64 64" xmlns="http://www.w3.org/2000/svg"><title/><g id="language"><path d="M9,20h3a1,1,0,0,0,0-2H9a1,1,0,0,0,0,2Z"/><path d="M26,25H9a1,1,0,0,0,0,2H26a1,1,0,0,0,0-2Z"/><path d="M26,32H9a1,1,0,0,0,0,2H26a1,1,0,0,0,0-2Z"/><path d="M26,39H9a1,1,0,0,0,0,2H26a1,1,0,0,0,0-2Z"/><path d="M26,46H9a1,1,0,0,0,0,2H26a1,1,0,0,0,0-2Z"/><path d="M55,18H52a1,1,0,0,0,0,2h3a1,1,0,0,0,0-2Z"/><path d="M55,25H38a1,1,0,0,0,0,2H55a1,1,0,0,0,0-2Z"/><path d="M55,32H38a1,1,0,0,0,0,2H55a1,1,0,0,0,0-2Z"/><path d="M55,39H38a1,1,0,0,0,0,2H55a1,1,0,0,0,0-2Z"/><path d="M55,46H38a1,1,0,0,0,0,2H55a1,1,0,0,0,0-2Z"/><path d="M35,13a1,1,0,0,0-1-1H31v2h3A1,1,0,0,0,35,13Z"/><path d="M57,10H49V5a3,3,0,0,0-3-3H18a3,3,0,0,0-3,3v5H7a5,5,0,0,0-5,5V59a3,3,0,0,0,3,3H59a3,3,0,0,0,3-3V15A5,5,0,0,0,57,10ZM39,7a1,1,0,0,1,1-1h4a1,1,0,0,1,0,2H41v6h3a1,1,0,0,1,0,2H40a1,1,0,0,1-1-1ZM29,11V7a1,1,0,0,1,1-1h4a3,3,0,0,1,3,3,3,3,0,0,1-.78,2A3,3,0,0,1,37,13a3,3,0,0,1-3,3H30a1,1,0,0,1-1-1Zm-9.94,3.65,3-8a1,1,0,0,1,1.88,0l3,8a1,1,0,0,1-.59,1.29A1,1,0,0,1,26,16a1,1,0,0,1-.94-.65L23,9.85l-2.06,5.5a1,1,0,1,1-1.88-.7ZM22.32,54H7a3,3,0,0,1-3-3V15a3,3,0,0,1,3-3h8v5a3,3,0,0,0,3,3h1v2a1,1,0,0,0,.55.89A.91.91,0,0,0,20,23a1,1,0,0,0,.6-.2L24.33,20H31V58.24L30.77,58A11,11,0,0,0,22.32,54ZM60,51a3,3,0,0,1-3,3H41.68a11,11,0,0,0-8.45,4l-.23.28V20H46a3,3,0,0,0,3-3V12h8a3,3,0,0,1,3,3Z"/><path d="M35,9a1,1,0,0,0-1-1H31v2h3A1,1,0,0,0,35,9Z"/></g></svg>