<?xml version="1.0" standalone="no"?>
<!DOCTYPE svg PUBLIC "-//W3C//DTD SVG 20010904//EN"
 "http://www.w3.org/TR/2001/REC-SVG-20010904/DTD/svg10.dtd">
<svg version="1.0" xmlns="http://www.w3.org/2000/svg"
 width="815.000000pt" height="735.000000pt" viewBox="0 0 815.000000 735.000000"
 preserveAspectRatio="xMidYMid meet">

<g transform="translate(0.000000,735.000000) scale(0.100000,-0.100000)"
fill="#000000" stroke="none">
<path d="M1703 7189 c-20 -6 -43 -24 -58 -47 -25 -37 -25 -37 -25 -264 l0
-228 -692 -2 -693 -3 -3 -662 -2 -663 3205 0 3205 0 0 665 0 665 -692 2 -693
3 -1 140 c-1 313 -1 320 -30 354 -48 58 -143 60 -195 5 -24 -25 -24 -29 -29
-262 l-5 -237 -1557 -3 -1558 -2 0 225 c0 243 -4 266 -53 298 -32 21 -85 28
-124 16z m-83 -1090 c5 -161 7 -176 28 -206 50 -70 158 -67 207 5 24 36 25 41
25 209 0 122 3 173 11 173 22 0 79 -42 118 -87 115 -130 108 -336 -14 -458
-77 -78 -130 -99 -245 -99 -115 0 -168 21 -246 99 -123 122 -127 335 -10 463
44 48 95 84 111 79 6 -2 12 -75 15 -178z m3374 165 c3 -9 6 -89 6 -178 0 -150
2 -165 21 -190 44 -56 110 -70 166 -36 59 35 62 49 65 240 3 205 4 206 91 135
41 -33 65 -63 89 -112 30 -61 33 -77 33 -153 0 -73 -4 -93 -28 -142 -35 -71
-91 -129 -159 -165 -47 -25 -64 -28 -153 -28 -93 0 -104 2 -154 30 -121 67
-184 169 -185 300 -1 85 13 136 56 199 30 46 111 115 134 116 7 0 15 -7 18
-16z"/>
<path d="M230 2986 c0 -1873 1 -2064 16 -2070 9 -3 817 -6 1797 -6 l1782 0 80
-82 c176 -179 399 -340 626 -452 163 -80 264 -118 434 -163 179 -47 264 -61
452 -74 390 -28 781 43 1135 207 54 25 125 60 159 79 33 19 63 35 65 35 10 0
235 158 289 203 675 565 979 1398 826 2257 -63 352 -239 737 -469 1025 -95
119 -265 287 -402 399 -50 40 -238 164 -290 191 -97 51 -90 28 -90 287 l0 228
-3205 0 -3205 0 0 -2064z m5565 1580 c487 -56 904 -253 1243 -589 354 -349
560 -770 618 -1261 25 -216 11 -467 -37 -681 -66 -287 -185 -549 -359 -787
-87 -120 -300 -337 -415 -424 -266 -200 -589 -343 -895 -395 -230 -40 -398
-47 -585 -25 -429 51 -781 195 -1105 454 -146 116 -341 332 -445 492 -93 143
-214 402 -246 524 -4 17 -17 67 -29 111 -36 136 -51 253 -57 440 -14 427 93
816 322 1180 167 264 409 503 676 665 399 242 865 347 1314 296z m-2795 -236
l0 -140 -320 0 -320 0 0 140 0 140 320 0 320 0 0 -140z m1280 131 c0 -5 -12
-17 -27 -26 -56 -36 -170 -125 -237 -184 l-70 -62 -90 3 -91 3 -3 124 c-1 69
0 131 2 138 4 10 60 13 261 13 141 0 255 -4 255 -9z m-2870 -675 c249 -54 442
-261 473 -507 38 -302 -116 -556 -403 -665 -68 -25 -87 -28 -200 -28 -113 0
-132 3 -200 28 -79 30 -172 87 -228 140 -48 45 -124 164 -147 231 -67 190 -37
395 80 560 51 72 81 100 160 152 140 93 302 124 465 89z m1590 -596 l0 -140
-317 2 -318 3 -3 124 c-1 69 0 131 2 138 4 10 71 13 321 13 l315 0 0 -140z
m-1400 -1140 l0 -140 -320 0 -320 0 0 140 0 140 320 0 320 0 0 -140z m1400 0
l0 -140 -320 0 -320 0 0 140 0 140 320 0 320 0 0 -140z"/>
<path d="M5456 4332 c-5 -8 -18 -121 -66 -562 -5 -52 -17 -158 -26 -235 -15
-137 -35 -325 -54 -515 -5 -52 -14 -133 -20 -180 -40 -330 -48 -430 -35 -445
5 -7 126 -95 268 -196 143 -101 303 -215 357 -254 54 -38 158 -112 232 -164
73 -52 159 -114 190 -138 31 -24 63 -43 70 -43 17 0 148 131 148 148 0 7 -148
210 -329 451 l-330 439 -10 83 c-5 46 -14 129 -20 184 -6 55 -18 161 -26 235
-15 129 -34 313 -55 520 -5 52 -14 133 -20 180 -15 127 -29 253 -40 370 -6 58
-12 111 -15 118 -5 14 -210 18 -219 4z"/>
<path d="M6751 3833 c-14 -3 -56 -36 -93 -73 -65 -65 -68 -70 -68 -117 0 -94
84 -153 174 -123 47 15 143 120 152 165 7 41 -19 100 -56 126 -28 20 -73 29
-109 22z"/>
<path d="M4290 3809 c-19 -12 -40 -29 -47 -38 -19 -25 -25 -84 -13 -116 13
-35 93 -120 132 -141 62 -32 141 -5 171 59 31 64 20 104 -50 178 -73 79 -131
96 -193 58z"/>
<path d="M7114 2587 c-69 -63 -53 -172 30 -211 39 -18 150 -22 193 -5 42 16
72 48 84 92 9 33 7 45 -11 83 -30 61 -59 74 -170 74 -88 0 -91 -1 -126 -33z"/>
<path d="M3810 2602 c-51 -23 -90 -75 -90 -120 0 -38 31 -93 64 -113 45 -28
186 -27 231 1 35 22 65 73 65 112 0 37 -34 90 -71 110 -34 18 -165 25 -199 10z"/>
<path d="M4394 1459 c-45 -13 -152 -123 -160 -164 -10 -53 4 -92 44 -125 52
-42 114 -42 168 1 109 86 138 160 91 230 -34 50 -90 73 -143 58z"/>
<path d="M6644 1437 c-28 -26 -37 -42 -41 -78 -6 -57 9 -88 74 -151 61 -58
109 -74 164 -51 58 23 79 55 79 121 l0 56 -69 68 c-68 66 -71 68 -121 68 -43
0 -55 -5 -86 -33z"/>
<path d="M5513 970 c-48 -29 -63 -67 -63 -158 0 -66 4 -85 23 -113 27 -41 60
-59 107 -59 47 0 80 18 107 59 31 46 33 179 3 228 -37 61 -116 81 -177 43z"/>
<path d="M962 3193 l3 -138 318 -3 c174 -1 317 1 317 5 0 5 2 62 4 128 2 66 1
126 -1 133 -4 9 -78 12 -324 12 l-320 0 3 -137z"/>
</g>
</svg>
