<?xml version="1.0" standalone="no"?>
<!DOCTYPE svg PUBLIC "-//W3C//DTD SVG 20010904//EN"
 "http://www.w3.org/TR/2001/REC-SVG-20010904/DTD/svg10.dtd">
<svg version="1.0" xmlns="http://www.w3.org/2000/svg"
 width="719.000000pt" height="533.000000pt" viewBox="0 0 719.000000 533.000000"
 preserveAspectRatio="xMidYMid meet">

<g transform="translate(0.000000,533.000000) scale(0.100000,-0.100000)"
fill="#000000" stroke="none">
<path d="M1285 4840 c-283 -42 -562 -245 -690 -500 -224 -446 -33 -985 427
-1205 40 -19 78 -35 85 -35 20 0 16 -14 -21 -82 -62 -113 -81 -188 -81 -318 0
-127 15 -192 66 -293 20 -40 25 -59 17 -61 -7 -2 -53 -13 -103 -25 -311 -75
-555 -309 -651 -626 -24 -80 -27 -107 -28 -240 -1 -137 2 -158 27 -244 93
-310 318 -531 645 -629 l87 -27 2695 -3 c1811 -2 2707 0 2730 7 54 16 101 70
107 123 6 52 -10 88 -57 133 l-31 30 -2227 5 c-1704 4 -2232 8 -2248 17 -11 7
-47 41 -80 76 -263 283 -263 730 1 1016 91 97 42 91 694 91 623 0 609 -1 665
58 55 59 46 141 -24 207 l-31 30 -322 5 c-363 6 -360 5 -409 84 -58 91 -72
142 -72 266 0 126 14 176 75 272 55 85 -111 78 1768 78 1825 0 1706 -4 1765
58 55 59 46 141 -24 207 l-31 30 -1877 5 -1877 5 -31 22 c-18 13 -54 47 -80
76 -253 278 -248 725 11 1006 94 101 -124 91 1969 91 2016 0 1881 -4 1940 58
55 59 46 141 -24 207 l-31 30 -2337 1 c-1285 1 -2359 -2 -2387 -6z"/>
<path d="M3782 2684 c-18 -9 -43 -31 -55 -48 -22 -31 -22 -31 -25 -571 -2
-394 1 -547 9 -568 15 -36 63 -61 101 -53 16 3 97 54 181 113 83 58 164 111
179 117 37 14 66 -1 234 -120 76 -53 149 -100 163 -105 37 -13 81 2 105 35 21
27 21 37 21 571 0 533 0 544 -21 571 -11 15 -33 37 -48 48 -26 20 -41 21 -419
23 -346 3 -396 1 -425 -13z"/>
<path d="M5080 2329 c-56 -33 -75 -66 -75 -129 0 -41 6 -63 22 -86 47 -66 19
-64 773 -64 754 0 726 -2 773 64 16 23 22 45 22 86 0 41 -6 63 -22 86 -47 66
-19 64 -775 64 -670 0 -684 -1 -718 -21z"/>
</g>
</svg>
