<?xml version="1.0" standalone="no"?>
<!DOCTYPE svg PUBLIC "-//W3C//DTD SVG 20010904//EN"
 "http://www.w3.org/TR/2001/REC-SVG-20010904/DTD/svg10.dtd">
<svg version="1.0" xmlns="http://www.w3.org/2000/svg"
 width="654.000000pt" height="665.000000pt" viewBox="0 0 654.000000 665.000000"
 preserveAspectRatio="xMidYMid meet">

<g transform="translate(0.000000,665.000000) scale(0.100000,-0.100000)"
fill="#000000" stroke="none">
<path d="M4460 5902 c0 -4 81 -88 181 -187 99 -99 199 -202 221 -228 l41 -49
-1039 -1039 c-571 -571 -1042 -1039 -1045 -1039 -3 0 -148 142 -321 315 -351
350 -370 365 -483 365 -114 0 -105 7 -731 -621 -625 -628 -598 -595 -596 -717
1 -77 27 -136 84 -187 53 -48 97 -66 167 -67 127 -1 99 -23 611 488 l465 464
319 -319 c216 -216 334 -326 365 -342 69 -36 179 -34 241 3 26 15 529 511
1185 1167 627 628 1145 1141 1152 1141 6 0 115 -107 242 -237 l231 -237 0 667
0 667 -645 0 c-355 0 -645 -3 -645 -8z"/>
<path d="M4952 2443 l3 -1598 260 0 260 0 3 1598 2 1597 -265 0 -265 0 2
-1597z"/>
<path d="M4152 2178 l3 -1333 260 0 260 0 3 1333 2 1332 -265 0 -265 0 2
-1332z"/>
<path d="M1752 1778 l3 -933 260 0 260 0 3 933 2 932 -265 0 -265 0 2 -932z"/>
<path d="M3352 1778 l3 -933 260 0 260 0 3 933 2 932 -265 0 -265 0 2 -932z"/>
<path d="M955 2168 c-3 -7 -4 -308 -3 -668 l3 -655 260 0 260 0 0 665 0 665
-258 3 c-201 2 -259 0 -262 -10z"/>
<path d="M2555 2168 c-3 -7 -4 -308 -3 -668 l3 -655 260 0 260 0 0 665 0 665
-258 3 c-201 2 -259 0 -262 -10z"/>
</g>
</svg>
