<?xml version="1.0" standalone="no"?>
<!DOCTYPE svg PUBLIC "-//W3C//DTD SVG 20010904//EN"
 "http://www.w3.org/TR/2001/REC-SVG-20010904/DTD/svg10.dtd">
<svg version="1.0" xmlns="http://www.w3.org/2000/svg"
 width="709.000000pt" height="530.000000pt" viewBox="0 0 709.000000 530.000000"
 preserveAspectRatio="xMidYMid meet">

<g transform="translate(0.000000,530.000000) scale(0.100000,-0.100000)"
fill="#000000" stroke="none">
<path d="M3365 4564 c-338 -53 -609 -280 -694 -584 -106 -380 100 -777 481
-929 224 -89 486 -81 700 23 339 164 514 506 443 864 -23 114 -98 260 -181
350 -159 175 -367 270 -604 277 -63 2 -128 1 -145 -1z"/>
<path d="M1480 4384 c-272 -58 -480 -308 -480 -576 0 -161 54 -290 171 -409
148 -150 356 -216 565 -178 278 51 486 276 501 544 7 117 -7 189 -58 293 -121
250 -414 387 -699 326z"/>
<path d="M5320 4384 c-125 -27 -256 -105 -339 -201 -53 -61 -118 -192 -132
-269 -52 -277 108 -556 381 -662 244 -94 529 -26 702 169 208 233 196 570 -28
795 -149 150 -372 214 -584 168z"/>
<path d="M5230 2839 c-170 -36 -309 -93 -452 -185 -77 -50 -88 -65 -88 -131 0
-46 2 -50 62 -103 242 -215 432 -457 543 -693 50 -105 -9 -97 715 -97 426 0
638 3 651 11 31 16 37 47 28 133 -51 459 -375 860 -826 1020 -188 66 -443 84
-633 45z"/>
<path d="M1355 2825 c-183 -38 -325 -102 -470 -209 -249 -185 -418 -448 -479
-748 -24 -114 -21 -192 6 -218 21 -20 32 -20 594 -20 665 0 594 -13 671 128
148 274 299 463 525 659 117 100 133 132 101 204 -18 39 -30 49 -109 91 -247
130 -562 172 -839 113z"/>
<path d="M3275 2514 c-622 -90 -1127 -487 -1345 -1057 -52 -136 -90 -300 -97
-418 l-6 -107 28 -26 c15 -14 42 -28 59 -31 17 -3 734 -4 1594 -3 l1564 3 35
39 c36 38 36 39 29 108 -17 183 -74 375 -167 563 -228 464 -625 777 -1139 901
-92 23 -132 26 -315 29 -115 2 -223 1 -240 -1z"/>
</g>
</svg>
