<svg width="36" height="36" viewBox="0 0 36 36" fill="none" xmlns="http://www.w3.org/2000/svg">
<path d="M19.4064 8.46564C16.3127 8.46564 13.8096 10.9688 13.8096 14.0625C13.8096 17.1563 16.3127 19.6594 19.4064 19.6594C22.5002 19.6594 25.0033 17.1563 25.0033 14.0625C25.0033 10.9688 22.5002 8.46564 19.4064 8.46564ZM19.4064 17.4094C17.5502 17.4094 16.0596 15.8906 16.0596 14.0625C16.0596 12.2344 17.5502 10.7156 19.4064 10.7156C21.2627 10.7156 22.7533 12.2063 22.7533 14.0625C22.7533 15.9188 21.2627 17.4094 19.4064 17.4094Z" fill="white"/>
<path d="M11.8125 2.53125H31.5V33.4688H4.5V2.53125H6.75V30.6562H9V0.28125H2.25V35.7188H33.75V0.28125H11.8125V2.53125Z" fill="white"/>
<path d="M14.4844 23.2312L15.6656 25.1438C16.7906 24.4969 18.0844 24.1594 19.4062 24.1594C20.7281 24.1594 22.0219 24.4969 23.1469 25.1156L24.3281 23.2031C22.8375 22.3875 21.15 21.9375 19.4062 21.9375C17.6625 21.9375 15.975 22.3875 14.4844 23.2312Z" fill="white"/>
</svg>
