<svg width="35" height="35" viewBox="0 0 35 35" fill="none" xmlns="http://www.w3.org/2000/svg">
<g clip-path="url(#clip0_21_48)">
<path d="M17.5 6.5625C19.3123 6.5625 20.7812 5.09359 20.7812 3.28125C20.7812 1.46891 19.3123 0 17.5 0C15.6877 0 14.2188 1.46891 14.2188 3.28125C14.2188 5.09359 15.6877 6.5625 17.5 6.5625ZM25.1562 15.3125C24.7855 15.3125 24.4223 15.3366 24.0625 15.377C24.0625 13.0922 24.0625 10.9375 24.0625 10.9375C24.0625 10.9375 24.0625 8.75 21.875 8.75C21.2505 8.75 13.125 8.75 13.125 8.75C13.125 8.75 10.9375 8.75 10.9375 10.9375V19.6875C10.9375 22.1867 13.125 21.875 13.125 21.875V35H21.875V34.428C22.902 34.7911 24.0034 35 25.1562 35C30.5933 34.9978 34.9978 30.5933 35 25.1562C34.9978 19.717 30.5933 15.3125 25.1562 15.3125ZM25.1562 32.6845C20.9989 32.6747 17.6356 29.3114 17.6258 25.1562C17.6356 20.9989 20.9989 17.6356 25.1562 17.6258C29.3114 17.6356 32.6747 20.9989 32.6845 25.1562C32.6747 29.3114 29.3114 32.6747 25.1562 32.6845Z" fill="white"/>
<path d="M30.625 24.0625H26.2522V19.6875H24.0625V24.0625H19.6875V26.25H24.0625V30.625H26.2522V26.25H30.625V24.0625Z" fill="white"/>
</g>
<defs>
<clipPath id="clip0_21_48">
<rect width="35" height="35" fill="white"/>
</clipPath>
</defs>
</svg>
