<svg width="35" height="35" viewBox="0 0 35 35" fill="none" xmlns="http://www.w3.org/2000/svg">
<g clip-path="url(#clip0_21_55)">
<path d="M8.75 21.875C8.75 19.6875 8.75 10.9375 8.75 10.9375C8.75 10.9375 8.75547 10.4453 9.01141 9.84375C6.7375 9.84375 4.375 9.84375 4.375 9.84375C4.375 9.84375 2.1875 9.84375 2.1875 12.0312V19.6875C2.1875 21.875 4.375 21.875 4.375 21.875V32.8125H10.9375V24.0625C10.9375 24.0625 8.75 24.0625 8.75 21.875ZM8.75 8.75C9.31875 8.75 9.84484 8.5925 10.3108 8.33875C10.3753 8.29938 10.4475 8.26437 10.5164 8.22609C11.4253 7.64313 12.0312 6.62922 12.0312 5.46875C12.0312 3.65641 10.5623 2.1875 8.75 2.1875C6.93766 2.1875 5.46875 3.65641 5.46875 5.46875C5.46875 7.28109 6.93766 8.75 8.75 8.75ZM30.625 9.84375H25.9897C26.2445 10.4453 26.25 10.9375 26.25 10.9375C26.25 10.9375 26.25 19.6875 26.25 21.875C26.25 24.0625 24.0625 24.0625 24.0625 24.0625V32.8125H30.625V21.875C30.625 21.875 32.8125 21.875 32.8125 19.6875C32.8125 17.5 32.8125 12.0312 32.8125 12.0312C32.8125 12.0312 32.8125 9.84375 30.625 9.84375ZM24.4781 8.22391C24.5492 8.26219 24.6247 8.29828 24.6903 8.33875C25.1562 8.5925 25.6812 8.75 26.25 8.75C28.0623 8.75 29.5312 7.28109 29.5312 5.46875C29.5312 3.65641 28.0623 2.1875 26.25 2.1875C24.4377 2.1875 22.9688 3.65641 22.9688 5.46875C22.9688 6.62703 23.5725 7.63984 24.4781 8.22391ZM17.5 8.75C19.3123 8.75 20.7812 7.28109 20.7812 5.46875C20.7812 3.65641 19.3123 2.1875 17.5 2.1875C15.6877 2.1875 14.2188 3.65641 14.2188 5.46875C14.2188 7.28109 15.6877 8.75 17.5 8.75ZM24.0625 12.0312C24.0625 12.0312 24.0625 9.84375 21.875 9.84375C21.3281 9.84375 13.125 9.84375 13.125 9.84375C13.125 9.84375 10.9375 9.84375 10.9375 12.0312V19.6875C10.9375 21.875 13.125 21.875 13.125 21.875V32.8125H21.875V21.875C21.875 21.875 24.0625 21.875 24.0625 19.6875C24.0625 17.5 24.0625 12.0312 24.0625 12.0312Z" fill="white"/>
</g>
<defs>
<clipPath id="clip0_21_55">
<rect width="35" height="35" fill="white"/>
</clipPath>
</defs>
</svg>
