<?xml version="1.0" standalone="no"?>
<!DOCTYPE svg PUBLIC "-//W3C//DTD SVG 20010904//EN"
 "http://www.w3.org/TR/2001/REC-SVG-20010904/DTD/svg10.dtd">
<svg version="1.0" xmlns="http://www.w3.org/2000/svg"
 width="614.000000pt" height="677.000000pt" viewBox="0 0 614.000000 677.000000"
 preserveAspectRatio="xMidYMid meet">

<g transform="translate(0.000000,677.000000) scale(0.100000,-0.100000)"
fill="#000000" stroke="none">
<path d="M2865 6274 c-466 -71 -861 -444 -961 -909 -22 -102 -29 -297 -14
-407 22 -168 96 -359 193 -503 65 -95 212 -241 312 -307 146 -98 309 -163 475
-189 114 -17 365 -6 465 21 203 54 365 145 512 284 111 105 174 187 238 307
91 174 135 355 135 554 -2 715 -642 1258 -1355 1149z"/>
<path d="M1635 3555 c-331 -75 -584 -330 -650 -655 -15 -75 -18 -165 -19 -760
-2 -371 0 -701 2 -733 l5 -57 756 2 756 3 6 125 c4 69 12 140 19 157 10 27 9
44 -4 96 -21 82 -22 378 -2 452 44 167 190 293 364 316 86 11 278 11 364 0
174 -23 320 -149 364 -316 20 -74 19 -370 -2 -452 -13 -52 -14 -69 -4 -96 7
-17 15 -88 19 -157 l6 -125 754 -3 c597 -2 756 0 763 10 11 18 9 1313 -2 1428
-11 112 -31 193 -67 275 -96 219 -279 386 -513 467 l-95 33 -1380 2 c-1131 1
-1391 -1 -1440 -12z"/>
<path d="M2849 2141 l-29 -29 0 -151 c0 -144 1 -151 24 -178 l24 -28 182 0
182 0 24 28 c23 27 24 34 24 178 l0 151 -29 29 -29 29 -172 0 -172 0 -29 -29z"/>
<path d="M2875 1588 c-56 -31 -55 -13 -55 -523 0 -512 -2 -494 57 -524 29 -15
317 -15 346 0 59 30 57 12 57 524 0 512 2 494 -57 524 -29 15 -321 14 -348 -1z"/>
</g>
</svg>
