<svg width="35" height="35" viewBox="0 0 35 35" fill="none" xmlns="http://www.w3.org/2000/svg">
<g clip-path="url(#clip0_21_41)">
<path d="M24.4792 8.225C24.5492 8.26219 24.6247 8.29828 24.6903 8.33984C25.1562 8.5925 25.6812 8.75 26.25 8.75C28.0634 8.75 29.5312 7.28109 29.5312 5.46875C29.5312 3.65641 28.0634 2.1875 26.25 2.1875C24.4387 2.1875 22.9688 3.65641 22.9688 5.46875C22.9688 6.62812 23.5736 7.63984 24.4792 8.225ZM8.75 21.8761C8.75 19.6886 8.75 10.9386 8.75 10.9386C8.75 10.9386 8.75547 10.4464 9.01031 9.84375C6.73641 9.84375 4.375 9.84375 4.375 9.84375C4.375 9.84375 2.1875 9.84375 2.1875 12.0323V19.6886C2.1875 21.8761 4.375 21.8761 4.375 21.8761V32.8136H10.9375V24.0636C10.9375 24.0636 8.75 24.0636 8.75 21.8761ZM17.5 8.75C19.3123 8.75 20.7812 7.28109 20.7812 5.46875C20.7812 3.65641 19.3123 2.1875 17.5 2.1875C15.6877 2.1875 14.2188 3.65641 14.2188 5.46875C14.2188 7.28109 15.6877 8.75 17.5 8.75ZM8.75 8.75C9.31875 8.75 9.84484 8.5925 10.3108 8.33875C10.3753 8.29938 10.4475 8.26437 10.5164 8.22609C11.4253 7.64313 12.0312 6.63031 12.0312 5.46875C12.0312 3.65641 10.5623 2.1875 8.75 2.1875C6.93766 2.1875 5.46875 3.65641 5.46875 5.46875C5.46875 7.28109 6.93766 8.75 8.75 8.75ZM32.8125 18.9777C32.8125 16.5047 32.8125 12.0323 32.8125 12.0323C32.8125 12.0323 32.8125 9.84375 30.625 9.84375H25.9897C26.2456 10.4464 26.25 10.9386 26.25 10.9386C26.25 10.9386 26.25 13.0036 26.25 15.3781C25.8913 15.3388 25.5259 15.3136 25.1562 15.3136C24.7866 15.3136 24.4234 15.3377 24.0625 15.3781C24.0625 13.5931 24.0625 12.0323 24.0625 12.0323C24.0625 12.0323 24.0625 9.84375 21.875 9.84375C21.3281 9.84375 13.125 9.84375 13.125 9.84375C13.125 9.84375 10.9375 9.84375 10.9375 12.0323V19.6886C10.9375 21.8761 13.125 21.8761 13.125 21.8761V32.8136H18.9766C20.6664 34.1786 22.8145 35 25.1562 35C30.5933 35 35 30.5944 35 25.1573C35 22.8145 34.1775 20.6675 32.8125 18.9777ZM25.1562 32.8125C20.9289 32.8037 17.5066 29.3836 17.5 25.1573C17.5066 20.93 20.9289 17.5077 25.1562 17.5011C29.3836 17.5077 32.8037 20.93 32.8125 25.1573C32.8037 29.3836 29.3836 32.8037 25.1562 32.8125Z" fill="white"/>
<path d="M30.625 24.0625H26.2522V19.6875H24.0625V24.0625H19.6875V26.25H24.0625V30.625H26.2522V26.25H30.625V24.0625Z" fill="white"/>
</g>
<defs>
<clipPath id="clip0_21_41">
<rect width="35" height="35" fill="white"/>
</clipPath>
</defs>
</svg>
