<?xml version="1.0" standalone="no"?>
<!DOCTYPE svg PUBLIC "-//W3C//DTD SVG 20010904//EN"
 "http://www.w3.org/TR/2001/REC-SVG-20010904/DTD/svg10.dtd">
<svg version="1.0" xmlns="http://www.w3.org/2000/svg"
 width="786.000000pt" height="722.000000pt" viewBox="0 0 786.000000 722.000000"
 preserveAspectRatio="xMidYMid meet">

<g transform="translate(0.000000,722.000000) scale(0.100000,-0.100000)"
fill="#000000" stroke="none">
<path d="M915 6620 l-240 -240 710 -710 710 -710 -403 -403 c-221 -221 -402
-406 -402 -410 0 -4 476 -6 1058 -5 l1057 3 3 1063 c1 584 -1 1062 -5 1062 -5
0 -191 -186 -415 -412 l-407 -413 -708 708 c-389 389 -710 707 -713 707 -3 0
-113 -108 -245 -240z"/>
<path d="M5867 6153 l-707 -708 -408 413 c-224 227 -410 412 -415 412 -4 0 -6
-478 -5 -1062 l3 -1063 1058 -3 c581 -1 1057 1 1057 5 0 4 -181 189 -402 410
l-403 403 708 708 c389 389 707 712 707 717 0 13 -464 475 -476 475 -5 0 -327
-318 -717 -707z"/>
<path d="M1290 3193 c0 -4 181 -189 402 -410 l403 -403 -708 -708 c-389 -389
-707 -711 -707 -715 0 -4 26 -33 58 -64 31 -30 139 -137 240 -236 l182 -182
711 710 710 710 407 -412 c224 -227 411 -413 415 -413 4 0 6 478 5 1062 l-3
1063 -1057 3 c-582 1 -1058 -1 -1058 -5z"/>
<path d="M4337 3193 c-10 -9 -9 -2123 1 -2123 4 0 190 186 414 412 l408 413
707 -707 c390 -390 712 -708 717 -708 12 0 476 463 476 475 0 5 -318 328 -707
717 l-708 708 403 403 c221 221 402 406 402 410 0 9 -2104 9 -2113 0z"/>
</g>
</svg>
