<?xml version="1.0" standalone="no"?>
<!DOCTYPE svg PUBLIC "-//W3C//DTD SVG 20010904//EN"
 "http://www.w3.org/TR/2001/REC-SVG-20010904/DTD/svg10.dtd">
<svg version="1.0" xmlns="http://www.w3.org/2000/svg"
 width="495.000000pt" height="470.000000pt" viewBox="0 0 495.000000 470.000000"
 preserveAspectRatio="xMidYMid meet">

<g transform="translate(0.000000,470.000000) scale(0.100000,-0.100000)"
fill="#000000" stroke="none">
<path d="M2070 4243 c-93 -14 -194 -37 -245 -55 -422 -146 -728 -494 -815
-929 -28 -141 -28 -344 1 -476 48 -222 135 -397 283 -566 l51 -59 -35 -27
c-232 -177 -440 -460 -569 -777 -38 -91 -37 -138 1 -174 21 -20 36 -20 615
-20 527 0 593 2 593 15 0 9 -9 44 -20 78 -36 112 -50 216 -50 369 0 161 18
273 65 413 138 409 506 736 930 829 148 32 270 38 414 22 74 -9 137 -13 140
-10 15 15 12 245 -4 340 -101 604 -616 1040 -1220 1033 -60 -1 -121 -4 -135
-6z"/>
<path d="M3050 2499 c-107 -11 -182 -33 -285 -83 -266 -131 -433 -353 -490
-654 -25 -130 -20 -223 22 -387 67 -261 289 -499 555 -594 112 -40 152 -46
298 -46 175 0 262 20 411 96 l62 31 176 -176 c181 -180 230 -215 299 -216 70
0 161 73 181 147 27 95 5 133 -200 338 -93 94 -169 178 -169 186 0 9 14 41 31
72 174 322 116 734 -142 1011 -194 208 -460 306 -749 275z m224 -395 c200 -52
343 -212 376 -423 35 -228 -118 -467 -348 -543 -84 -28 -228 -25 -313 6 -131
48 -226 131 -285 251 -101 205 -55 444 113 594 128 114 296 157 457 115z"/>
</g>
</svg>
