<svg width="0" height="0" class="hidden">
  <symbol version="1.0" xmlns="http://www.w3.org/2000/svg" preserveAspectRatio="xMidYMid meet" viewBox="0 0 654.000000 665.000000" id="chart">
    <g transform="translate(0.000000,665.000000) scale(0.100000,-0.100000)"  stroke="none">
      <path d="M4460 5902 c0 -4 81 -88 181 -187 99 -99 199 -202 221 -228 l41 -49
-1039 -1039 c-571 -571 -1042 -1039 -1045 -1039 -3 0 -148 142 -321 315 -351
350 -370 365 -483 365 -114 0 -105 7 -731 -621 -625 -628 -598 -595 -596 -717
1 -77 27 -136 84 -187 53 -48 97 -66 167 -67 127 -1 99 -23 611 488 l465 464
319 -319 c216 -216 334 -326 365 -342 69 -36 179 -34 241 3 26 15 529 511
1185 1167 627 628 1145 1141 1152 1141 6 0 115 -107 242 -237 l231 -237 0 667
0 667 -645 0 c-355 0 -645 -3 -645 -8z"></path>
      <path d="M4952 2443 l3 -1598 260 0 260 0 3 1598 2 1597 -265 0 -265 0 2
-1597z"></path>
      <path d="M4152 2178 l3 -1333 260 0 260 0 3 1333 2 1332 -265 0 -265 0 2
-1332z"></path>
      <path d="M1752 1778 l3 -933 260 0 260 0 3 933 2 932 -265 0 -265 0 2 -932z"></path>
      <path d="M3352 1778 l3 -933 260 0 260 0 3 933 2 932 -265 0 -265 0 2 -932z"></path>
      <path d="M955 2168 c-3 -7 -4 -308 -3 -668 l3 -655 260 0 260 0 0 665 0 665
-258 3 c-201 2 -259 0 -262 -10z"></path>
      <path d="M2555 2168 c-3 -7 -4 -308 -3 -668 l3 -655 260 0 260 0 0 665 0 665
-258 3 c-201 2 -259 0 -262 -10z"></path>
    </g>
  </symbol>
  <symbol version="1.0" xmlns="http://www.w3.org/2000/svg" preserveAspectRatio="xMidYMid meet" viewBox="0 0 664.000000 673.000000" id="test-a">
    <g transform="translate(0.000000,673.000000) scale(0.100000,-0.100000)"  stroke="none">
      <path d="M1444 6030 c-145 -22 -266 -124 -315 -267 -19 -55 -19 -106 -19
-2393 0 -2287 0 -2338 19 -2393 39 -113 125 -203 238 -249 l58 -23 1755 -3
c1179 -2 1781 1 1834 8 167 22 284 114 336 265 18 52 19 123 21 1877 1 1683 0
1831 -16 1923 -47 276 -159 478 -417 751 -210 221 -422 370 -632 443 -191 67
-119 64 -1531 67 -704 1 -1303 -2 -1331 -6z m2720 -293 c157 -50 255 -105 393
-220 199 -168 381 -381 454 -531 50 -104 51 -125 3 -91 -12 8 -57 27 -100 42
-77 27 -86 27 -341 31 l-262 4 -3 216 c-4 239 -8 258 -63 292 -64 40 -156 15
-190 -50 -14 -26 -15 -73 -13 -340 l3 -309 29 -30 c17 -17 46 -36 65 -41 20
-6 169 -10 337 -10 274 0 305 -2 360 -20 110 -37 201 -125 245 -237 l23 -58 4
-1635 c3 -1154 1 -1647 -7 -1676 -6 -22 -25 -53 -41 -69 l-31 -30 -1789 0
-1789 0 -30 29 c-17 17 -36 46 -41 65 -13 49 -14 4553 0 4600 11 38 44 79 75
92 11 4 605 7 1320 6 l1300 -2 89 -28z"></path>
      <path d="M2535 4429 c-17 -5 -44 -22 -60 -39 -28 -29 -29 -34 -37 -168 -26
-451 -198 -1135 -464 -1848 -79 -212 -81 -241 -24 -296 36 -33 47 -38 89 -38
40 0 54 6 85 32 32 29 45 56 107 228 103 288 92 264 130 272 229 46 300 64
394 98 61 22 155 63 209 90 55 28 102 47 106 43 3 -5 46 -102 95 -218 49 -115
100 -222 114 -238 50 -55 143 -54 194 3 26 29 32 54 27 110 -1 14 -49 134
-106 267 l-104 242 101 98 c75 74 102 107 108 133 22 104 -58 187 -159 165
-20 -4 -55 -30 -92 -66 -33 -32 -63 -59 -67 -59 -4 0 -114 251 -245 558 -131
306 -245 567 -252 579 -28 46 -93 68 -149 52z m279 -1024 c134 -313 144 -341
128 -353 -70 -55 -365 -171 -474 -187 l-47 -7 20 63 c73 239 176 640 194 759
9 65 16 83 25 74 5 -5 74 -162 154 -349z"></path>
      <path d="M3924 3561 c-19 -11 -38 -36 -48 -62 -16 -39 -16 -48 -1 -128 36
-194 42 -231 37 -236 -3 -3 -61 -5 -130 -5 -91 0 -132 -4 -155 -15 -95 -46
-100 -173 -10 -232 23 -16 50 -18 190 -18 90 0 163 0 163 0 0 0 9 -51 20 -114
22 -131 46 -174 108 -190 72 -20 151 25 169 96 5 22 -12 141 -34 239 -4 18 7
24 93 53 206 70 254 106 254 184 0 106 -97 165 -198 121 -20 -9 -74 -29 -119
-44 l-81 -28 -27 146 c-14 81 -34 162 -43 181 -33 67 -123 92 -188 52z"></path>
    </g>
  </symbol>
  <symbol version="1.0" xmlns="http://www.w3.org/2000/svg" preserveAspectRatio="xMidYMid meet" viewBox="0 0 709.000000 530.000000" id="persons">
    <g transform="translate(0.000000,530.000000) scale(0.100000,-0.100000)"  stroke="none">
      <path d="M3365 4564 c-338 -53 -609 -280 -694 -584 -106 -380 100 -777 481
-929 224 -89 486 -81 700 23 339 164 514 506 443 864 -23 114 -98 260 -181
350 -159 175 -367 270 -604 277 -63 2 -128 1 -145 -1z"></path>
      <path d="M1480 4384 c-272 -58 -480 -308 -480 -576 0 -161 54 -290 171 -409
148 -150 356 -216 565 -178 278 51 486 276 501 544 7 117 -7 189 -58 293 -121
250 -414 387 -699 326z"></path>
      <path d="M5320 4384 c-125 -27 -256 -105 -339 -201 -53 -61 -118 -192 -132
-269 -52 -277 108 -556 381 -662 244 -94 529 -26 702 169 208 233 196 570 -28
795 -149 150 -372 214 -584 168z"></path>
      <path d="M5230 2839 c-170 -36 -309 -93 -452 -185 -77 -50 -88 -65 -88 -131 0
-46 2 -50 62 -103 242 -215 432 -457 543 -693 50 -105 -9 -97 715 -97 426 0
638 3 651 11 31 16 37 47 28 133 -51 459 -375 860 -826 1020 -188 66 -443 84
-633 45z"></path>
      <path d="M1355 2825 c-183 -38 -325 -102 -470 -209 -249 -185 -418 -448 -479
-748 -24 -114 -21 -192 6 -218 21 -20 32 -20 594 -20 665 0 594 -13 671 128
148 274 299 463 525 659 117 100 133 132 101 204 -18 39 -30 49 -109 91 -247
130 -562 172 -839 113z"></path>
      <path d="M3275 2514 c-622 -90 -1127 -487 -1345 -1057 -52 -136 -90 -300 -97
-418 l-6 -107 28 -26 c15 -14 42 -28 59 -31 17 -3 734 -4 1594 -3 l1564 3 35
39 c36 38 36 39 29 108 -17 183 -74 375 -167 563 -228 464 -625 777 -1139 901
-92 23 -132 26 -315 29 -115 2 -223 1 -240 -1z"></path>
    </g>
  </symbol>
  <symbol version="1.0" xmlns="http://www.w3.org/2000/svg" preserveAspectRatio="xMidYMid meet" viewBox="0 0 674.000000 669.000000" id="test">
    <g transform="translate(0.000000,669.000000) scale(0.100000,-0.100000)"  stroke="none">
      <path d="M4245 6235 c-110 -8 -283 -21 -384 -30 -101 -8 -305 -20 -455 -25
-610 -22 -932 -63 -1231 -154 -60 -19 -145 -39 -187 -45 -222 -31 -433 -171
-566 -374 -69 -106 -105 -198 -162 -415 -72 -276 -75 -303 -75 -662 1 -285 3
-334 28 -517 54 -401 146 -817 327 -1473 109 -398 130 -491 137 -607 l6 -102
-49 15 c-137 41 -480 55 -574 23 -75 -26 -153 -91 -196 -165 -112 -191 -63
-505 115 -741 91 -121 162 -169 316 -214 44 -13 89 -32 100 -42 35 -33 127
-74 237 -105 117 -34 232 -49 628 -84 450 -40 1244 -28 1690 27 63 7 180 19
260 25 364 28 707 116 855 217 79 55 193 173 239 249 50 83 108 220 140 331
50 175 68 310 73 558 4 200 2 264 -21 490 -53 526 -98 822 -161 1070 -54 208
-49 194 -180 500 -129 303 -164 393 -198 510 -70 239 -77 370 -32 523 l16 52
267 -1 c273 0 353 8 463 46 131 47 230 147 265 270 22 75 21 230 -2 318 -45
177 -201 334 -418 423 -86 35 -271 80 -406 99 -160 23 -608 28 -865 10z m476
-175 c557 -29 853 -132 971 -338 30 -52 33 -66 36 -158 3 -82 1 -109 -13 -139
-50 -104 -227 -139 -589 -116 -187 12 -946 1 -1441 -20 -336 -14 -887 -23
-919 -15 -31 8 -44 33 -112 226 -82 231 -181 356 -344 440 -25 13 -40 24 -35
26 6 2 71 12 145 23 202 30 398 40 890 46 245 3 567 10 715 15 149 6 308 12
355 13 47 2 101 4 120 5 19 1 119 -3 221 -8z m-2523 -379 c93 -48 151 -133
215 -317 88 -253 158 -330 318 -355 80 -13 272 -8 1184 30 259 11 582 23 718
27 l249 7 -25 -50 c-101 -198 -69 -523 94 -983 146 -409 161 -458 189 -610 43
-230 57 -347 97 -825 48 -565 35 -867 -47 -1145 -62 -207 -172 -380 -284 -444
-118 -68 -380 -127 -671 -151 -104 -9 -228 -20 -275 -25 -369 -41 -1195 -58
-1520 -31 -415 34 -628 53 -648 57 l-24 5 24 32 c105 140 166 349 189 638 19
254 -1 513 -57 729 -33 126 -49 184 -139 503 -219 777 -315 1323 -315 1791 0
211 15 363 50 516 55 239 110 359 215 466 66 67 126 106 219 141 78 30 179 27
244 -6z m-512 -4063 c-3 -29 -8 -89 -12 -132 -8 -107 -47 -263 -83 -334 -42
-84 -89 -122 -149 -122 -145 0 -267 118 -316 307 -21 82 -21 179 2 223 21 44
53 52 270 75 86 9 180 20 207 24 91 16 87 18 81 -41z"></path>
      <path d="M4228 5909 c-149 -12 -408 -46 -441 -58 -15 -6 -27 -15 -27 -21 0 -5
1 -10 3 -10 1 0 36 -6 77 -14 42 -8 179 -20 305 -26 379 -17 642 -39 781 -65
161 -31 175 -31 202 -2 36 38 37 71 5 107 -25 28 -41 34 -148 56 -187 38 -509
52 -757 33z"></path>
      <path d="M2640 4401 c-115 -37 -160 -77 -160 -140 1 -58 39 -92 135 -121 23
-7 151 -16 305 -20 284 -9 388 -25 472 -72 46 -26 78 -73 78 -115 0 -80 -97
-198 -271 -327 -53 -39 -154 -113 -224 -165 -178 -131 -253 -209 -307 -317
-43 -87 -43 -89 -43 -194 0 -103 1 -107 35 -164 56 -94 111 -135 350 -265 190
-103 236 -156 233 -268 -2 -88 -25 -124 -152 -236 -121 -107 -153 -152 -171
-241 -23 -114 6 -185 119 -285 67 -59 130 -155 132 -200 1 -37 18 26 18 72 1
61 -15 100 -84 197 -68 96 -74 121 -45 188 22 51 49 76 169 157 74 50 145 121
173 172 36 66 62 191 54 255 -16 114 -75 216 -173 292 -31 25 -118 83 -192
130 -206 129 -229 157 -196 243 23 60 114 150 235 232 288 195 343 236 438
328 130 127 193 257 194 403 1 216 -139 367 -407 438 -122 32 -230 42 -455 41
-168 0 -215 -3 -260 -18z"></path>
      <path d="M3909 3619 c-19 -33 -19 -225 0 -258 l13 -24 147 6 c177 8 309 28
395 63 146 58 145 109 -1 169 -87 35 -212 55 -389 62 l-152 6 -13 -24z"></path>
      <path d="M3918 2768 c-34 -34 -36 -214 -2 -265 l16 -26 137 7 c252 13 442 61
492 124 17 22 17 28 6 45 -46 70 -260 122 -532 129 -82 3 -103 0 -117 -14z"></path>
      <path d="M3913 1893 c-13 -19 -19 -52 -22 -112 -4 -96 10 -157 38 -166 38 -12
344 15 442 38 99 24 181 64 198 96 36 67 -155 140 -423 161 -197 15 -213 14
-233 -17z"></path>
    </g>
  </symbol>
  <symbol xmlns="http://www.w3.org/2000/svg" viewBox="0 0 64 64" id="alphabet">
    <title></title>
    <g id="language">
      <path d="M9,20h3a1,1,0,0,0,0-2H9a1,1,0,0,0,0,2Z"></path>
      <path d="M26,25H9a1,1,0,0,0,0,2H26a1,1,0,0,0,0-2Z"></path>
      <path d="M26,32H9a1,1,0,0,0,0,2H26a1,1,0,0,0,0-2Z"></path>
      <path d="M26,39H9a1,1,0,0,0,0,2H26a1,1,0,0,0,0-2Z"></path>
      <path d="M26,46H9a1,1,0,0,0,0,2H26a1,1,0,0,0,0-2Z"></path>
      <path d="M55,18H52a1,1,0,0,0,0,2h3a1,1,0,0,0,0-2Z"></path>
      <path d="M55,25H38a1,1,0,0,0,0,2H55a1,1,0,0,0,0-2Z"></path>
      <path d="M55,32H38a1,1,0,0,0,0,2H55a1,1,0,0,0,0-2Z"></path>
      <path d="M55,39H38a1,1,0,0,0,0,2H55a1,1,0,0,0,0-2Z"></path>
      <path d="M55,46H38a1,1,0,0,0,0,2H55a1,1,0,0,0,0-2Z"></path>
      <path d="M35,13a1,1,0,0,0-1-1H31v2h3A1,1,0,0,0,35,13Z"></path>
      <path d="M57,10H49V5a3,3,0,0,0-3-3H18a3,3,0,0,0-3,3v5H7a5,5,0,0,0-5,5V59a3,3,0,0,0,3,3H59a3,3,0,0,0,3-3V15A5,5,0,0,0,57,10ZM39,7a1,1,0,0,1,1-1h4a1,1,0,0,1,0,2H41v6h3a1,1,0,0,1,0,2H40a1,1,0,0,1-1-1ZM29,11V7a1,1,0,0,1,1-1h4a3,3,0,0,1,3,3,3,3,0,0,1-.78,2A3,3,0,0,1,37,13a3,3,0,0,1-3,3H30a1,1,0,0,1-1-1Zm-9.94,3.65,3-8a1,1,0,0,1,1.88,0l3,8a1,1,0,0,1-.59,1.29A1,1,0,0,1,26,16a1,1,0,0,1-.94-.65L23,9.85l-2.06,5.5a1,1,0,1,1-1.88-.7ZM22.32,54H7a3,3,0,0,1-3-3V15a3,3,0,0,1,3-3h8v5a3,3,0,0,0,3,3h1v2a1,1,0,0,0,.55.89A.91.91,0,0,0,20,23a1,1,0,0,0,.6-.2L24.33,20H31V58.24L30.77,58A11,11,0,0,0,22.32,54ZM60,51a3,3,0,0,1-3,3H41.68a11,11,0,0,0-8.45,4l-.23.28V20H46a3,3,0,0,0,3-3V12h8a3,3,0,0,1,3,3Z"></path>
      <path d="M35,9a1,1,0,0,0-1-1H31v2h3A1,1,0,0,0,35,9Z"></path>
    </g>
  </symbol>
  <symbol id="arrow" version="1.1" xml:space="preserve" xmlns="http://www.w3.org/2000/svg" xmlns:xlink="http://www.w3.org/1999/xlink" viewBox="0 0 32 32">
    <path d="M28,14H8.8l4.62-4.62C13.814,8.986,14,8.516,14,8c0-0.984-0.813-2-2-2c-0.531,0-0.994,0.193-1.38,0.58l-7.958,7.958  C2.334,14.866,2,15.271,2,16s0.279,1.08,0.646,1.447l7.974,7.973C11.006,25.807,11.469,26,12,26c1.188,0,2-1.016,2-2  c0-0.516-0.186-0.986-0.58-1.38L8.8,18H28c1.104,0,2-0.896,2-2S29.104,14,28,14z"></path>
  </symbol>
  <symbol version="1.1" xml:space="preserve" xmlns="http://www.w3.org/2000/svg" xmlns:xlink="http://www.w3.org/1999/xlink" viewBox="0 0 24 24" id="cross">
    <g id="grid_system"></g>
    <g id="_icons">
      <path d="M5.3,18.7C5.5,18.9,5.7,19,6,19s0.5-0.1,0.7-0.3l5.3-5.3l5.3,5.3c0.2,0.2,0.5,0.3,0.7,0.3s0.5-0.1,0.7-0.3   c0.4-0.4,0.4-1,0-1.4L13.4,12l5.3-5.3c0.4-0.4,0.4-1,0-1.4s-1-0.4-1.4,0L12,10.6L6.7,5.3c-0.4-0.4-1-0.4-1.4,0s-0.4,1,0,1.4   l5.3,5.3l-5.3,5.3C4.9,17.7,4.9,18.3,5.3,18.7z"></path>
    </g>
  </symbol>
  <symbol xmlns="http://www.w3.org/2000/svg" viewBox="0 0 32 32" id="arrow-long">
    <defs></defs>
    <title></title>
    <g id="arrow-left">
      <line x1="3" x2="29" y1="16" y2="16"></line>
      <line x1="3" x2="7" y1="16" y2="11"></line>
      <line x1="3" x2="7" y1="16" y2="21"></line>
    </g>
  </symbol>
  <symbol xmlns="http://www.w3.org/2000/svg" viewBox="0 0 24 24" id="arrow-bold">
    <path d="M12,15.8198039 L12,21.2037682 L1.48140774,12 L12,2.79623177 L12,8.1801961 L22,10.1801961 L22,13.8198039 L12,15.8198039 Z M4.51859226,12 L10,16.7962318 L10,14.1801961 L20,12.1801961 L20,11.8198039 L10,9.8198039 L10,7.20376823 L4.51859226,12 Z" fill-rule="evenodd"></path>
  </symbol>
</svg>