<svg width="0" height="0" class="hidden">
  <symbol version="1.0" xmlns="http://www.w3.org/2000/svg" preserveAspectRatio="xMidYMid meet" viewBox="0 0 654.000000 665.000000" id="chart">
    <g transform="translate(0.000000,665.000000) scale(0.100000,-0.100000)"  stroke="none">
      <path d="M4460 5902 c0 -4 81 -88 181 -187 99 -99 199 -202 221 -228 l41 -49
-1039 -1039 c-571 -571 -1042 -1039 -1045 -1039 -3 0 -148 142 -321 315 -351
350 -370 365 -483 365 -114 0 -105 7 -731 -621 -625 -628 -598 -595 -596 -717
1 -77 27 -136 84 -187 53 -48 97 -66 167 -67 127 -1 99 -23 611 488 l465 464
319 -319 c216 -216 334 -326 365 -342 69 -36 179 -34 241 3 26 15 529 511
1185 1167 627 628 1145 1141 1152 1141 6 0 115 -107 242 -237 l231 -237 0 667
0 667 -645 0 c-355 0 -645 -3 -645 -8z"></path>
      <path d="M4952 2443 l3 -1598 260 0 260 0 3 1598 2 1597 -265 0 -265 0 2
-1597z"></path>
      <path d="M4152 2178 l3 -1333 260 0 260 0 3 1333 2 1332 -265 0 -265 0 2
-1332z"></path>
      <path d="M1752 1778 l3 -933 260 0 260 0 3 933 2 932 -265 0 -265 0 2 -932z"></path>
      <path d="M3352 1778 l3 -933 260 0 260 0 3 933 2 932 -265 0 -265 0 2 -932z"></path>
      <path d="M955 2168 c-3 -7 -4 -308 -3 -668 l3 -655 260 0 260 0 0 665 0 665
-258 3 c-201 2 -259 0 -262 -10z"></path>
      <path d="M2555 2168 c-3 -7 -4 -308 -3 -668 l3 -655 260 0 260 0 0 665 0 665
-258 3 c-201 2 -259 0 -262 -10z"></path>
    </g>
  </symbol>
  <symbol version="1.0" xmlns="http://www.w3.org/2000/svg" preserveAspectRatio="xMidYMid meet" viewBox="0 0 664.000000 673.000000" id="test-a">
    <g transform="translate(0.000000,673.000000) scale(0.100000,-0.100000)"  stroke="none">
      <path d="M1444 6030 c-145 -22 -266 -124 -315 -267 -19 -55 -19 -106 -19
-2393 0 -2287 0 -2338 19 -2393 39 -113 125 -203 238 -249 l58 -23 1755 -3
c1179 -2 1781 1 1834 8 167 22 284 114 336 265 18 52 19 123 21 1877 1 1683 0
1831 -16 1923 -47 276 -159 478 -417 751 -210 221 -422 370 -632 443 -191 67
-119 64 -1531 67 -704 1 -1303 -2 -1331 -6z m2720 -293 c157 -50 255 -105 393
-220 199 -168 381 -381 454 -531 50 -104 51 -125 3 -91 -12 8 -57 27 -100 42
-77 27 -86 27 -341 31 l-262 4 -3 216 c-4 239 -8 258 -63 292 -64 40 -156 15
-190 -50 -14 -26 -15 -73 -13 -340 l3 -309 29 -30 c17 -17 46 -36 65 -41 20
-6 169 -10 337 -10 274 0 305 -2 360 -20 110 -37 201 -125 245 -237 l23 -58 4
-1635 c3 -1154 1 -1647 -7 -1676 -6 -22 -25 -53 -41 -69 l-31 -30 -1789 0
-1789 0 -30 29 c-17 17 -36 46 -41 65 -13 49 -14 4553 0 4600 11 38 44 79 75
92 11 4 605 7 1320 6 l1300 -2 89 -28z"></path>
      <path d="M2535 4429 c-17 -5 -44 -22 -60 -39 -28 -29 -29 -34 -37 -168 -26
-451 -198 -1135 -464 -1848 -79 -212 -81 -241 -24 -296 36 -33 47 -38 89 -38
40 0 54 6 85 32 32 29 45 56 107 228 103 288 92 264 130 272 229 46 300 64
394 98 61 22 155 63 209 90 55 28 102 47 106 43 3 -5 46 -102 95 -218 49 -115
100 -222 114 -238 50 -55 143 -54 194 3 26 29 32 54 27 110 -1 14 -49 134
-106 267 l-104 242 101 98 c75 74 102 107 108 133 22 104 -58 187 -159 165
-20 -4 -55 -30 -92 -66 -33 -32 -63 -59 -67 -59 -4 0 -114 251 -245 558 -131
306 -245 567 -252 579 -28 46 -93 68 -149 52z m279 -1024 c134 -313 144 -341
128 -353 -70 -55 -365 -171 -474 -187 l-47 -7 20 63 c73 239 176 640 194 759
9 65 16 83 25 74 5 -5 74 -162 154 -349z"></path>
      <path d="M3924 3561 c-19 -11 -38 -36 -48 -62 -16 -39 -16 -48 -1 -128 36
-194 42 -231 37 -236 -3 -3 -61 -5 -130 -5 -91 0 -132 -4 -155 -15 -95 -46
-100 -173 -10 -232 23 -16 50 -18 190 -18 90 0 163 0 163 0 0 0 9 -51 20 -114
22 -131 46 -174 108 -190 72 -20 151 25 169 96 5 22 -12 141 -34 239 -4 18 7
24 93 53 206 70 254 106 254 184 0 106 -97 165 -198 121 -20 -9 -74 -29 -119
-44 l-81 -28 -27 146 c-14 81 -34 162 -43 181 -33 67 -123 92 -188 52z"></path>
    </g>
  </symbol>
  <symbol version="1.0" xmlns="http://www.w3.org/2000/svg" preserveAspectRatio="xMidYMid meet" viewBox="0 0 709.000000 530.000000" id="persons">
    <g transform="translate(0.000000,530.000000) scale(0.100000,-0.100000)"  stroke="none">
      <path d="M3365 4564 c-338 -53 -609 -280 -694 -584 -106 -380 100 -777 481
-929 224 -89 486 -81 700 23 339 164 514 506 443 864 -23 114 -98 260 -181
350 -159 175 -367 270 -604 277 -63 2 -128 1 -145 -1z"></path>
      <path d="M1480 4384 c-272 -58 -480 -308 -480 -576 0 -161 54 -290 171 -409
148 -150 356 -216 565 -178 278 51 486 276 501 544 7 117 -7 189 -58 293 -121
250 -414 387 -699 326z"></path>
      <path d="M5320 4384 c-125 -27 -256 -105 -339 -201 -53 -61 -118 -192 -132
-269 -52 -277 108 -556 381 -662 244 -94 529 -26 702 169 208 233 196 570 -28
795 -149 150 -372 214 -584 168z"></path>
      <path d="M5230 2839 c-170 -36 -309 -93 -452 -185 -77 -50 -88 -65 -88 -131 0
-46 2 -50 62 -103 242 -215 432 -457 543 -693 50 -105 -9 -97 715 -97 426 0
638 3 651 11 31 16 37 47 28 133 -51 459 -375 860 -826 1020 -188 66 -443 84
-633 45z"></path>
      <path d="M1355 2825 c-183 -38 -325 -102 -470 -209 -249 -185 -418 -448 -479
-748 -24 -114 -21 -192 6 -218 21 -20 32 -20 594 -20 665 0 594 -13 671 128
148 274 299 463 525 659 117 100 133 132 101 204 -18 39 -30 49 -109 91 -247
130 -562 172 -839 113z"></path>
      <path d="M3275 2514 c-622 -90 -1127 -487 -1345 -1057 -52 -136 -90 -300 -97
-418 l-6 -107 28 -26 c15 -14 42 -28 59 -31 17 -3 734 -4 1594 -3 l1564 3 35
39 c36 38 36 39 29 108 -17 183 -74 375 -167 563 -228 464 -625 777 -1139 901
-92 23 -132 26 -315 29 -115 2 -223 1 -240 -1z"></path>
    </g>
  </symbol>
  <symbol version="1.0" xmlns="http://www.w3.org/2000/svg" preserveAspectRatio="xMidYMid meet" viewBox="0 0 674.000000 669.000000" id="test">
    <g transform="translate(0.000000,669.000000) scale(0.100000,-0.100000)"  stroke="none">
      <path d="M4245 6235 c-110 -8 -283 -21 -384 -30 -101 -8 -305 -20 -455 -25
-610 -22 -932 -63 -1231 -154 -60 -19 -145 -39 -187 -45 -222 -31 -433 -171
-566 -374 -69 -106 -105 -198 -162 -415 -72 -276 -75 -303 -75 -662 1 -285 3
-334 28 -517 54 -401 146 -817 327 -1473 109 -398 130 -491 137 -607 l6 -102
-49 15 c-137 41 -480 55 -574 23 -75 -26 -153 -91 -196 -165 -112 -191 -63
-505 115 -741 91 -121 162 -169 316 -214 44 -13 89 -32 100 -42 35 -33 127
-74 237 -105 117 -34 232 -49 628 -84 450 -40 1244 -28 1690 27 63 7 180 19
260 25 364 28 707 116 855 217 79 55 193 173 239 249 50 83 108 220 140 331
50 175 68 310 73 558 4 200 2 264 -21 490 -53 526 -98 822 -161 1070 -54 208
-49 194 -180 500 -129 303 -164 393 -198 510 -70 239 -77 370 -32 523 l16 52
267 -1 c273 0 353 8 463 46 131 47 230 147 265 270 22 75 21 230 -2 318 -45
177 -201 334 -418 423 -86 35 -271 80 -406 99 -160 23 -608 28 -865 10z m476
-175 c557 -29 853 -132 971 -338 30 -52 33 -66 36 -158 3 -82 1 -109 -13 -139
-50 -104 -227 -139 -589 -116 -187 12 -946 1 -1441 -20 -336 -14 -887 -23
-919 -15 -31 8 -44 33 -112 226 -82 231 -181 356 -344 440 -25 13 -40 24 -35
26 6 2 71 12 145 23 202 30 398 40 890 46 245 3 567 10 715 15 149 6 308 12
355 13 47 2 101 4 120 5 19 1 119 -3 221 -8z m-2523 -379 c93 -48 151 -133
215 -317 88 -253 158 -330 318 -355 80 -13 272 -8 1184 30 259 11 582 23 718
27 l249 7 -25 -50 c-101 -198 -69 -523 94 -983 146 -409 161 -458 189 -610 43
-230 57 -347 97 -825 48 -565 35 -867 -47 -1145 -62 -207 -172 -380 -284 -444
-118 -68 -380 -127 -671 -151 -104 -9 -228 -20 -275 -25 -369 -41 -1195 -58
-1520 -31 -415 34 -628 53 -648 57 l-24 5 24 32 c105 140 166 349 189 638 19
254 -1 513 -57 729 -33 126 -49 184 -139 503 -219 777 -315 1323 -315 1791 0
211 15 363 50 516 55 239 110 359 215 466 66 67 126 106 219 141 78 30 179 27
244 -6z m-512 -4063 c-3 -29 -8 -89 -12 -132 -8 -107 -47 -263 -83 -334 -42
-84 -89 -122 -149 -122 -145 0 -267 118 -316 307 -21 82 -21 179 2 223 21 44
53 52 270 75 86 9 180 20 207 24 91 16 87 18 81 -41z"></path>
      <path d="M4228 5909 c-149 -12 -408 -46 -441 -58 -15 -6 -27 -15 -27 -21 0 -5
1 -10 3 -10 1 0 36 -6 77 -14 42 -8 179 -20 305 -26 379 -17 642 -39 781 -65
161 -31 175 -31 202 -2 36 38 37 71 5 107 -25 28 -41 34 -148 56 -187 38 -509
52 -757 33z"></path>
      <path d="M2640 4401 c-115 -37 -160 -77 -160 -140 1 -58 39 -92 135 -121 23
-7 151 -16 305 -20 284 -9 388 -25 472 -72 46 -26 78 -73 78 -115 0 -80 -97
-198 -271 -327 -53 -39 -154 -113 -224 -165 -178 -131 -253 -209 -307 -317
-43 -87 -43 -89 -43 -194 0 -103 1 -107 35 -164 56 -94 111 -135 350 -265 190
-103 236 -156 233 -268 -2 -88 -25 -124 -152 -236 -121 -107 -153 -152 -171
-241 -23 -114 6 -185 119 -285 67 -59 130 -155 132 -200 1 -37 18 26 18 72 1
61 -15 100 -84 197 -68 96 -74 121 -45 188 22 51 49 76 169 157 74 50 145 121
173 172 36 66 62 191 54 255 -16 114 -75 216 -173 292 -31 25 -118 83 -192
130 -206 129 -229 157 -196 243 23 60 114 150 235 232 288 195 343 236 438
328 130 127 193 257 194 403 1 216 -139 367 -407 438 -122 32 -230 42 -455 41
-168 0 -215 -3 -260 -18z"></path>
      <path d="M3909 3619 c-19 -33 -19 -225 0 -258 l13 -24 147 6 c177 8 309 28
395 63 146 58 145 109 -1 169 -87 35 -212 55 -389 62 l-152 6 -13 -24z"></path>
      <path d="M3918 2768 c-34 -34 -36 -214 -2 -265 l16 -26 137 7 c252 13 442 61
492 124 17 22 17 28 6 45 -46 70 -260 122 -532 129 -82 3 -103 0 -117 -14z"></path>
      <path d="M3913 1893 c-13 -19 -19 -52 -22 -112 -4 -96 10 -157 38 -166 38 -12
344 15 442 38 99 24 181 64 198 96 36 67 -155 140 -423 161 -197 15 -213 14
-233 -17z"></path>
    </g>
  </symbol>
  <symbol xmlns="http://www.w3.org/2000/svg" viewBox="0 0 64 64" id="alphabet">
    <title></title>
    <g id="language">
      <path d="M9,20h3a1,1,0,0,0,0-2H9a1,1,0,0,0,0,2Z"></path>
      <path d="M26,25H9a1,1,0,0,0,0,2H26a1,1,0,0,0,0-2Z"></path>
      <path d="M26,32H9a1,1,0,0,0,0,2H26a1,1,0,0,0,0-2Z"></path>
      <path d="M26,39H9a1,1,0,0,0,0,2H26a1,1,0,0,0,0-2Z"></path>
      <path d="M26,46H9a1,1,0,0,0,0,2H26a1,1,0,0,0,0-2Z"></path>
      <path d="M55,18H52a1,1,0,0,0,0,2h3a1,1,0,0,0,0-2Z"></path>
      <path d="M55,25H38a1,1,0,0,0,0,2H55a1,1,0,0,0,0-2Z"></path>
      <path d="M55,32H38a1,1,0,0,0,0,2H55a1,1,0,0,0,0-2Z"></path>
      <path d="M55,39H38a1,1,0,0,0,0,2H55a1,1,0,0,0,0-2Z"></path>
      <path d="M55,46H38a1,1,0,0,0,0,2H55a1,1,0,0,0,0-2Z"></path>
      <path d="M35,13a1,1,0,0,0-1-1H31v2h3A1,1,0,0,0,35,13Z"></path>
      <path d="M57,10H49V5a3,3,0,0,0-3-3H18a3,3,0,0,0-3,3v5H7a5,5,0,0,0-5,5V59a3,3,0,0,0,3,3H59a3,3,0,0,0,3-3V15A5,5,0,0,0,57,10ZM39,7a1,1,0,0,1,1-1h4a1,1,0,0,1,0,2H41v6h3a1,1,0,0,1,0,2H40a1,1,0,0,1-1-1ZM29,11V7a1,1,0,0,1,1-1h4a3,3,0,0,1,3,3,3,3,0,0,1-.78,2A3,3,0,0,1,37,13a3,3,0,0,1-3,3H30a1,1,0,0,1-1-1Zm-9.94,3.65,3-8a1,1,0,0,1,1.88,0l3,8a1,1,0,0,1-.59,1.29A1,1,0,0,1,26,16a1,1,0,0,1-.94-.65L23,9.85l-2.06,5.5a1,1,0,1,1-1.88-.7ZM22.32,54H7a3,3,0,0,1-3-3V15a3,3,0,0,1,3-3h8v5a3,3,0,0,0,3,3h1v2a1,1,0,0,0,.55.89A.91.91,0,0,0,20,23a1,1,0,0,0,.6-.2L24.33,20H31V58.24L30.77,58A11,11,0,0,0,22.32,54ZM60,51a3,3,0,0,1-3,3H41.68a11,11,0,0,0-8.45,4l-.23.28V20H46a3,3,0,0,0,3-3V12h8a3,3,0,0,1,3,3Z"></path>
      <path d="M35,9a1,1,0,0,0-1-1H31v2h3A1,1,0,0,0,35,9Z"></path>
    </g>
  </symbol>
  <symbol id="arrow" version="1.1" xml:space="preserve" xmlns="http://www.w3.org/2000/svg" xmlns:xlink="http://www.w3.org/1999/xlink" viewBox="0 0 32 32">
    <path d="M28,14H8.8l4.62-4.62C13.814,8.986,14,8.516,14,8c0-0.984-0.813-2-2-2c-0.531,0-0.994,0.193-1.38,0.58l-7.958,7.958  C2.334,14.866,2,15.271,2,16s0.279,1.08,0.646,1.447l7.974,7.973C11.006,25.807,11.469,26,12,26c1.188,0,2-1.016,2-2  c0-0.516-0.186-0.986-0.58-1.38L8.8,18H28c1.104,0,2-0.896,2-2S29.104,14,28,14z"></path>
  </symbol>
  <symbol version="1.1" xml:space="preserve" xmlns="http://www.w3.org/2000/svg" xmlns:xlink="http://www.w3.org/1999/xlink" viewBox="0 0 24 24" id="cross">
    <g id="grid_system"></g>
    <g id="_icons">
      <path d="M5.3,18.7C5.5,18.9,5.7,19,6,19s0.5-0.1,0.7-0.3l5.3-5.3l5.3,5.3c0.2,0.2,0.5,0.3,0.7,0.3s0.5-0.1,0.7-0.3   c0.4-0.4,0.4-1,0-1.4L13.4,12l5.3-5.3c0.4-0.4,0.4-1,0-1.4s-1-0.4-1.4,0L12,10.6L6.7,5.3c-0.4-0.4-1-0.4-1.4,0s-0.4,1,0,1.4   l5.3,5.3l-5.3,5.3C4.9,17.7,4.9,18.3,5.3,18.7z"></path>
    </g>
  </symbol>
  <symbol xmlns="http://www.w3.org/2000/svg" viewBox="0 0 32 32" id="arrow-long">
    <title></title>
    <g id="Layer_2">
    <path d="M10.1,23a1,1,0,0,0,0-1.41L5.5,17H29.05a1,1,0,0,0,0-2H5.53l4.57-4.57A1,1,0,0,0,8.68,9L2.32,15.37a.9.9,0,0,0,0,1.27L8.68,23A1,1,0,0,0,10.1,23Z"></path>
    </g>
  </symbol>
  <symbol xmlns="http://www.w3.org/2000/svg" viewBox="0 0 24 24" id="arrow-bold">
    <path d="M12,15.8198039 L12,21.2037682 L1.48140774,12 L12,2.79623177 L12,8.1801961 L22,10.1801961 L22,13.8198039 L12,15.8198039 Z M4.51859226,12 L10,16.7962318 L10,14.1801961 L20,12.1801961 L20,11.8198039 L10,9.8198039 L10,7.20376823 L4.51859226,12 Z" fill-rule="evenodd"></path>
  </symbol>
    <symbol version="1.0" xmlns="http://www.w3.org/2000/svg" preserveAspectRatio="xMidYMid meet" viewBox="0 0 719.000000 533.000000" id="books">
    <g transform="translate(0.000000,533.000000) scale(0.100000,-0.100000)" stroke="none">
      <path d="M1285 4840 c-283 -42 -562 -245 -690 -500 -224 -446 -33 -985 427
-1205 40 -19 78 -35 85 -35 20 0 16 -14 -21 -82 -62 -113 -81 -188 -81 -318 0
-127 15 -192 66 -293 20 -40 25 -59 17 -61 -7 -2 -53 -13 -103 -25 -311 -75
-555 -309 -651 -626 -24 -80 -27 -107 -28 -240 -1 -137 2 -158 27 -244 93
-310 318 -531 645 -629 l87 -27 2695 -3 c1811 -2 2707 0 2730 7 54 16 101 70
107 123 6 52 -10 88 -57 133 l-31 30 -2227 5 c-1704 4 -2232 8 -2248 17 -11 7
-47 41 -80 76 -263 283 -263 730 1 1016 91 97 42 91 694 91 623 0 609 -1 665
58 55 59 46 141 -24 207 l-31 30 -322 5 c-363 6 -360 5 -409 84 -58 91 -72
142 -72 266 0 126 14 176 75 272 55 85 -111 78 1768 78 1825 0 1706 -4 1765
58 55 59 46 141 -24 207 l-31 30 -1877 5 -1877 5 -31 22 c-18 13 -54 47 -80
76 -253 278 -248 725 11 1006 94 101 -124 91 1969 91 2016 0 1881 -4 1940 58
55 59 46 141 -24 207 l-31 30 -2337 1 c-1285 1 -2359 -2 -2387 -6z"></path>
      <path d="M3782 2684 c-18 -9 -43 -31 -55 -48 -22 -31 -22 -31 -25 -571 -2
-394 1 -547 9 -568 15 -36 63 -61 101 -53 16 3 97 54 181 113 83 58 164 111
179 117 37 14 66 -1 234 -120 76 -53 149 -100 163 -105 37 -13 81 2 105 35 21
27 21 37 21 571 0 533 0 544 -21 571 -11 15 -33 37 -48 48 -26 20 -41 21 -419
23 -346 3 -396 1 -425 -13z"></path>
      <path d="M5080 2329 c-56 -33 -75 -66 -75 -129 0 -41 6 -63 22 -86 47 -66 19
-64 773 -64 754 0 726 -2 773 64 16 23 22 45 22 86 0 41 -6 63 -22 86 -47 66
-19 64 -775 64 -670 0 -684 -1 -718 -21z"></path>
    </g>
  </symbol>
    <symbol version="1.1" xmlns="http://www.w3.org/2000/svg" xmlns:xlink="http://www.w3.org/1999/xlink" viewBox="0 0 64 64" id="tick">
    <title></title>
    <desc></desc>
    <g  fill-rule="evenodd" id="Tick" stroke="none" stroke-width="1">
      <g  id="Group" transform="translate(9.000000, 13.000000)">
        <path d="M12.5900974,34.4099026 C13.5664082,35.3862133 15.1493206,35.3862133 16.1256313,34.4099026 L44.4099026,6.12563133 C45.3862133,5.1493206 45.3862133,3.56640815 44.4099026,2.59009742 C43.4335918,1.61378669 41.8506794,1.61378669 40.8743687,2.59009742 L12.5900974,30.8743687 C11.6137867,31.8506794 11.6137867,33.4335918 12.5900974,34.4099026 Z" id="Rectangle"></path>
        <path d="M1.42893219,19.9289322 C2.40524292,18.9526215 3.98815536,18.9526215 4.96446609,19.9289322 L15.5710678,30.5355339 C16.5473785,31.5118446 16.5473785,33.0947571 15.5710678,34.0710678 C14.5947571,35.0473785 13.0118446,35.0473785 12.0355339,34.0710678 L1.42893219,23.4644661 C0.452621459,22.4881554 0.452621459,20.9052429 1.42893219,19.9289322 Z" id="Rectangle"></path>
      </g>
    </g>
  </symbol>
  <symbol  xmlns="http://www.w3.org/2000/svg" viewBox="0 0 35 35" id="person-group">
    <g clip-path="url(#clip0_21_55)">
      <path d="M8.75 21.875C8.75 19.6875 8.75 10.9375 8.75 10.9375C8.75 10.9375 8.75547 10.4453 9.01141 9.84375C6.7375 9.84375 4.375 9.84375 4.375 9.84375C4.375 9.84375 2.1875 9.84375 2.1875 12.0312V19.6875C2.1875 21.875 4.375 21.875 4.375 21.875V32.8125H10.9375V24.0625C10.9375 24.0625 8.75 24.0625 8.75 21.875ZM8.75 8.75C9.31875 8.75 9.84484 8.5925 10.3108 8.33875C10.3753 8.29938 10.4475 8.26437 10.5164 8.22609C11.4253 7.64313 12.0312 6.62922 12.0312 5.46875C12.0312 3.65641 10.5623 2.1875 8.75 2.1875C6.93766 2.1875 5.46875 3.65641 5.46875 5.46875C5.46875 7.28109 6.93766 8.75 8.75 8.75ZM30.625 9.84375H25.9897C26.2445 10.4453 26.25 10.9375 26.25 10.9375C26.25 10.9375 26.25 19.6875 26.25 21.875C26.25 24.0625 24.0625 24.0625 24.0625 24.0625V32.8125H30.625V21.875C30.625 21.875 32.8125 21.875 32.8125 19.6875C32.8125 17.5 32.8125 12.0312 32.8125 12.0312C32.8125 12.0312 32.8125 9.84375 30.625 9.84375ZM24.4781 8.22391C24.5492 8.26219 24.6247 8.29828 24.6903 8.33875C25.1562 8.5925 25.6812 8.75 26.25 8.75C28.0623 8.75 29.5312 7.28109 29.5312 5.46875C29.5312 3.65641 28.0623 2.1875 26.25 2.1875C24.4377 2.1875 22.9688 3.65641 22.9688 5.46875C22.9688 6.62703 23.5725 7.63984 24.4781 8.22391ZM17.5 8.75C19.3123 8.75 20.7812 7.28109 20.7812 5.46875C20.7812 3.65641 19.3123 2.1875 17.5 2.1875C15.6877 2.1875 14.2188 3.65641 14.2188 5.46875C14.2188 7.28109 15.6877 8.75 17.5 8.75ZM24.0625 12.0312C24.0625 12.0312 24.0625 9.84375 21.875 9.84375C21.3281 9.84375 13.125 9.84375 13.125 9.84375C13.125 9.84375 10.9375 9.84375 10.9375 12.0312V19.6875C10.9375 21.875 13.125 21.875 13.125 21.875V32.8125H21.875V21.875C21.875 21.875 24.0625 21.875 24.0625 19.6875C24.0625 17.5 24.0625 12.0312 24.0625 12.0312Z" ></path>
    </g>
    <defs>
      <clipPath id="clip0_21_55">
        <rect width="35" height="35" ></rect>
      </clipPath>
    </defs>
  </symbol>
  <symbol  xmlns="http://www.w3.org/2000/svg" viewBox="0 0 35 35" id="person-add">
    <g clip-path="url(#clip0_21_48)">
      <path d="M17.5 6.5625C19.3123 6.5625 20.7812 5.09359 20.7812 3.28125C20.7812 1.46891 19.3123 0 17.5 0C15.6877 0 14.2188 1.46891 14.2188 3.28125C14.2188 5.09359 15.6877 6.5625 17.5 6.5625ZM25.1562 15.3125C24.7855 15.3125 24.4223 15.3366 24.0625 15.377C24.0625 13.0922 24.0625 10.9375 24.0625 10.9375C24.0625 10.9375 24.0625 8.75 21.875 8.75C21.2505 8.75 13.125 8.75 13.125 8.75C13.125 8.75 10.9375 8.75 10.9375 10.9375V19.6875C10.9375 22.1867 13.125 21.875 13.125 21.875V35H21.875V34.428C22.902 34.7911 24.0034 35 25.1562 35C30.5933 34.9978 34.9978 30.5933 35 25.1562C34.9978 19.717 30.5933 15.3125 25.1562 15.3125ZM25.1562 32.6845C20.9989 32.6747 17.6356 29.3114 17.6258 25.1562C17.6356 20.9989 20.9989 17.6356 25.1562 17.6258C29.3114 17.6356 32.6747 20.9989 32.6845 25.1562C32.6747 29.3114 29.3114 32.6747 25.1562 32.6845Z" ></path>
      <path d="M30.625 24.0625H26.2522V19.6875H24.0625V24.0625H19.6875V26.25H24.0625V30.625H26.2522V26.25H30.625V24.0625Z" ></path>
    </g>
    <defs>
      <clipPath id="clip0_21_48">
        <rect width="35" height="35" ></rect>
      </clipPath>
    </defs>
  </symbol>
  <symbol version="1.0" xmlns="http://www.w3.org/2000/svg" preserveAspectRatio="xMidYMid meet" viewBox="0 0 815.000000 735.000000" id="attendance">
    <g transform="translate(0.000000,735.000000) scale(0.100000,-0.100000)"  stroke="none">
      <path d="M1703 7189 c-20 -6 -43 -24 -58 -47 -25 -37 -25 -37 -25 -264 l0
-228 -692 -2 -693 -3 -3 -662 -2 -663 3205 0 3205 0 0 665 0 665 -692 2 -693
3 -1 140 c-1 313 -1 320 -30 354 -48 58 -143 60 -195 5 -24 -25 -24 -29 -29
-262 l-5 -237 -1557 -3 -1558 -2 0 225 c0 243 -4 266 -53 298 -32 21 -85 28
-124 16z m-83 -1090 c5 -161 7 -176 28 -206 50 -70 158 -67 207 5 24 36 25 41
25 209 0 122 3 173 11 173 22 0 79 -42 118 -87 115 -130 108 -336 -14 -458
-77 -78 -130 -99 -245 -99 -115 0 -168 21 -246 99 -123 122 -127 335 -10 463
44 48 95 84 111 79 6 -2 12 -75 15 -178z m3374 165 c3 -9 6 -89 6 -178 0 -150
2 -165 21 -190 44 -56 110 -70 166 -36 59 35 62 49 65 240 3 205 4 206 91 135
41 -33 65 -63 89 -112 30 -61 33 -77 33 -153 0 -73 -4 -93 -28 -142 -35 -71
-91 -129 -159 -165 -47 -25 -64 -28 -153 -28 -93 0 -104 2 -154 30 -121 67
-184 169 -185 300 -1 85 13 136 56 199 30 46 111 115 134 116 7 0 15 -7 18
-16z"></path>
      <path d="M230 2986 c0 -1873 1 -2064 16 -2070 9 -3 817 -6 1797 -6 l1782 0 80
-82 c176 -179 399 -340 626 -452 163 -80 264 -118 434 -163 179 -47 264 -61
452 -74 390 -28 781 43 1135 207 54 25 125 60 159 79 33 19 63 35 65 35 10 0
235 158 289 203 675 565 979 1398 826 2257 -63 352 -239 737 -469 1025 -95
119 -265 287 -402 399 -50 40 -238 164 -290 191 -97 51 -90 28 -90 287 l0 228
-3205 0 -3205 0 0 -2064z m5565 1580 c487 -56 904 -253 1243 -589 354 -349
560 -770 618 -1261 25 -216 11 -467 -37 -681 -66 -287 -185 -549 -359 -787
-87 -120 -300 -337 -415 -424 -266 -200 -589 -343 -895 -395 -230 -40 -398
-47 -585 -25 -429 51 -781 195 -1105 454 -146 116 -341 332 -445 492 -93 143
-214 402 -246 524 -4 17 -17 67 -29 111 -36 136 -51 253 -57 440 -14 427 93
816 322 1180 167 264 409 503 676 665 399 242 865 347 1314 296z m-2795 -236
l0 -140 -320 0 -320 0 0 140 0 140 320 0 320 0 0 -140z m1280 131 c0 -5 -12
-17 -27 -26 -56 -36 -170 -125 -237 -184 l-70 -62 -90 3 -91 3 -3 124 c-1 69
0 131 2 138 4 10 60 13 261 13 141 0 255 -4 255 -9z m-2870 -675 c249 -54 442
-261 473 -507 38 -302 -116 -556 -403 -665 -68 -25 -87 -28 -200 -28 -113 0
-132 3 -200 28 -79 30 -172 87 -228 140 -48 45 -124 164 -147 231 -67 190 -37
395 80 560 51 72 81 100 160 152 140 93 302 124 465 89z m1590 -596 l0 -140
-317 2 -318 3 -3 124 c-1 69 0 131 2 138 4 10 71 13 321 13 l315 0 0 -140z
m-1400 -1140 l0 -140 -320 0 -320 0 0 140 0 140 320 0 320 0 0 -140z m1400 0
l0 -140 -320 0 -320 0 0 140 0 140 320 0 320 0 0 -140z"></path>
      <path d="M5456 4332 c-5 -8 -18 -121 -66 -562 -5 -52 -17 -158 -26 -235 -15
-137 -35 -325 -54 -515 -5 -52 -14 -133 -20 -180 -40 -330 -48 -430 -35 -445
5 -7 126 -95 268 -196 143 -101 303 -215 357 -254 54 -38 158 -112 232 -164
73 -52 159 -114 190 -138 31 -24 63 -43 70 -43 17 0 148 131 148 148 0 7 -148
210 -329 451 l-330 439 -10 83 c-5 46 -14 129 -20 184 -6 55 -18 161 -26 235
-15 129 -34 313 -55 520 -5 52 -14 133 -20 180 -15 127 -29 253 -40 370 -6 58
-12 111 -15 118 -5 14 -210 18 -219 4z"></path>
      <path d="M6751 3833 c-14 -3 -56 -36 -93 -73 -65 -65 -68 -70 -68 -117 0 -94
84 -153 174 -123 47 15 143 120 152 165 7 41 -19 100 -56 126 -28 20 -73 29
-109 22z"></path>
      <path d="M4290 3809 c-19 -12 -40 -29 -47 -38 -19 -25 -25 -84 -13 -116 13
-35 93 -120 132 -141 62 -32 141 -5 171 59 31 64 20 104 -50 178 -73 79 -131
96 -193 58z"></path>
      <path d="M7114 2587 c-69 -63 -53 -172 30 -211 39 -18 150 -22 193 -5 42 16
72 48 84 92 9 33 7 45 -11 83 -30 61 -59 74 -170 74 -88 0 -91 -1 -126 -33z"></path>
      <path d="M3810 2602 c-51 -23 -90 -75 -90 -120 0 -38 31 -93 64 -113 45 -28
186 -27 231 1 35 22 65 73 65 112 0 37 -34 90 -71 110 -34 18 -165 25 -199 10z"></path>
      <path d="M4394 1459 c-45 -13 -152 -123 -160 -164 -10 -53 4 -92 44 -125 52
-42 114 -42 168 1 109 86 138 160 91 230 -34 50 -90 73 -143 58z"></path>
      <path d="M6644 1437 c-28 -26 -37 -42 -41 -78 -6 -57 9 -88 74 -151 61 -58
109 -74 164 -51 58 23 79 55 79 121 l0 56 -69 68 c-68 66 -71 68 -121 68 -43
0 -55 -5 -86 -33z"></path>
      <path d="M5513 970 c-48 -29 -63 -67 -63 -158 0 -66 4 -85 23 -113 27 -41 60
-59 107 -59 47 0 80 18 107 59 31 46 33 179 3 228 -37 61 -116 81 -177 43z"></path>
      <path d="M962 3193 l3 -138 318 -3 c174 -1 317 1 317 5 0 5 2 62 4 128 2 66 1
126 -1 133 -4 9 -78 12 -324 12 l-320 0 3 -137z"></path>
    </g>
  </symbol>
  <symbol  xmlns="http://www.w3.org/2000/svg" viewBox="0 0 35 35" id="person-group-add">
    <g clip-path="url(#clip0_21_41)">
      <path d="M24.4792 8.225C24.5492 8.26219 24.6247 8.29828 24.6903 8.33984C25.1562 8.5925 25.6812 8.75 26.25 8.75C28.0634 8.75 29.5312 7.28109 29.5312 5.46875C29.5312 3.65641 28.0634 2.1875 26.25 2.1875C24.4387 2.1875 22.9688 3.65641 22.9688 5.46875C22.9688 6.62812 23.5736 7.63984 24.4792 8.225ZM8.75 21.8761C8.75 19.6886 8.75 10.9386 8.75 10.9386C8.75 10.9386 8.75547 10.4464 9.01031 9.84375C6.73641 9.84375 4.375 9.84375 4.375 9.84375C4.375 9.84375 2.1875 9.84375 2.1875 12.0323V19.6886C2.1875 21.8761 4.375 21.8761 4.375 21.8761V32.8136H10.9375V24.0636C10.9375 24.0636 8.75 24.0636 8.75 21.8761ZM17.5 8.75C19.3123 8.75 20.7812 7.28109 20.7812 5.46875C20.7812 3.65641 19.3123 2.1875 17.5 2.1875C15.6877 2.1875 14.2188 3.65641 14.2188 5.46875C14.2188 7.28109 15.6877 8.75 17.5 8.75ZM8.75 8.75C9.31875 8.75 9.84484 8.5925 10.3108 8.33875C10.3753 8.29938 10.4475 8.26437 10.5164 8.22609C11.4253 7.64313 12.0312 6.63031 12.0312 5.46875C12.0312 3.65641 10.5623 2.1875 8.75 2.1875C6.93766 2.1875 5.46875 3.65641 5.46875 5.46875C5.46875 7.28109 6.93766 8.75 8.75 8.75ZM32.8125 18.9777C32.8125 16.5047 32.8125 12.0323 32.8125 12.0323C32.8125 12.0323 32.8125 9.84375 30.625 9.84375H25.9897C26.2456 10.4464 26.25 10.9386 26.25 10.9386C26.25 10.9386 26.25 13.0036 26.25 15.3781C25.8913 15.3388 25.5259 15.3136 25.1562 15.3136C24.7866 15.3136 24.4234 15.3377 24.0625 15.3781C24.0625 13.5931 24.0625 12.0323 24.0625 12.0323C24.0625 12.0323 24.0625 9.84375 21.875 9.84375C21.3281 9.84375 13.125 9.84375 13.125 9.84375C13.125 9.84375 10.9375 9.84375 10.9375 12.0323V19.6886C10.9375 21.8761 13.125 21.8761 13.125 21.8761V32.8136H18.9766C20.6664 34.1786 22.8145 35 25.1562 35C30.5933 35 35 30.5944 35 25.1573C35 22.8145 34.1775 20.6675 32.8125 18.9777ZM25.1562 32.8125C20.9289 32.8037 17.5066 29.3836 17.5 25.1573C17.5066 20.93 20.9289 17.5077 25.1562 17.5011C29.3836 17.5077 32.8037 20.93 32.8125 25.1573C32.8037 29.3836 29.3836 32.8037 25.1562 32.8125Z" ></path>
      <path d="M30.625 24.0625H26.2522V19.6875H24.0625V24.0625H19.6875V26.25H24.0625V30.625H26.2522V26.25H30.625V24.0625Z" ></path>
    </g>
    <defs>
      <clipPath id="clip0_21_41">
        <rect width="35" height="35" ></rect>
      </clipPath>
    </defs>
  </symbol>
  <symbol version="1.0" xmlns="http://www.w3.org/2000/svg" preserveAspectRatio="xMidYMid meet" viewBox="0 0 786.000000 722.000000" id="scale">
    <g transform="translate(0.000000,722.000000) scale(0.100000,-0.100000)"  stroke="none">
      <path d="M915 6620 l-240 -240 710 -710 710 -710 -403 -403 c-221 -221 -402
-406 -402 -410 0 -4 476 -6 1058 -5 l1057 3 3 1063 c1 584 -1 1062 -5 1062 -5
0 -191 -186 -415 -412 l-407 -413 -708 708 c-389 389 -710 707 -713 707 -3 0
-113 -108 -245 -240z"></path>
      <path d="M5867 6153 l-707 -708 -408 413 c-224 227 -410 412 -415 412 -4 0 -6
-478 -5 -1062 l3 -1063 1058 -3 c581 -1 1057 1 1057 5 0 4 -181 189 -402 410
l-403 403 708 708 c389 389 707 712 707 717 0 13 -464 475 -476 475 -5 0 -327
-318 -717 -707z"></path>
      <path d="M1290 3193 c0 -4 181 -189 402 -410 l403 -403 -708 -708 c-389 -389
-707 -711 -707 -715 0 -4 26 -33 58 -64 31 -30 139 -137 240 -236 l182 -182
711 710 710 710 407 -412 c224 -227 411 -413 415 -413 4 0 6 478 5 1062 l-3
1063 -1057 3 c-582 1 -1058 -1 -1058 -5z"></path>
      <path d="M4337 3193 c-10 -9 -9 -2123 1 -2123 4 0 190 186 414 412 l408 413
707 -707 c390 -390 712 -708 717 -708 12 0 476 463 476 475 0 5 -318 328 -707
717 l-708 708 403 403 c221 221 402 406 402 410 0 9 -2104 9 -2113 0z"></path>
    </g>
  </symbol>
  <symbol version="1.0" xmlns="http://www.w3.org/2000/svg" preserveAspectRatio="xMidYMid meet" viewBox="0 0 614.000000 677.000000" id="person-info">
    <g transform="translate(0.000000,677.000000) scale(0.100000,-0.100000)"  stroke="none">
      <path d="M2865 6274 c-466 -71 -861 -444 -961 -909 -22 -102 -29 -297 -14
-407 22 -168 96 -359 193 -503 65 -95 212 -241 312 -307 146 -98 309 -163 475
-189 114 -17 365 -6 465 21 203 54 365 145 512 284 111 105 174 187 238 307
91 174 135 355 135 554 -2 715 -642 1258 -1355 1149z"></path>
      <path d="M1635 3555 c-331 -75 -584 -330 -650 -655 -15 -75 -18 -165 -19 -760
-2 -371 0 -701 2 -733 l5 -57 756 2 756 3 6 125 c4 69 12 140 19 157 10 27 9
44 -4 96 -21 82 -22 378 -2 452 44 167 190 293 364 316 86 11 278 11 364 0
174 -23 320 -149 364 -316 20 -74 19 -370 -2 -452 -13 -52 -14 -69 -4 -96 7
-17 15 -88 19 -157 l6 -125 754 -3 c597 -2 756 0 763 10 11 18 9 1313 -2 1428
-11 112 -31 193 -67 275 -96 219 -279 386 -513 467 l-95 33 -1380 2 c-1131 1
-1391 -1 -1440 -12z"></path>
      <path d="M2849 2141 l-29 -29 0 -151 c0 -144 1 -151 24 -178 l24 -28 182 0
182 0 24 28 c23 27 24 34 24 178 l0 151 -29 29 -29 29 -172 0 -172 0 -29 -29z"></path>
      <path d="M2875 1588 c-56 -31 -55 -13 -55 -523 0 -512 -2 -494 57 -524 29 -15
317 -15 346 0 59 30 57 12 57 524 0 512 2 494 -57 524 -29 15 -321 14 -348 -1z"></path>
    </g>
  </symbol>
  <symbol version="1.0" xmlns="http://www.w3.org/2000/svg" preserveAspectRatio="xMidYMid meet" viewBox="0 0 495.000000 470.000000" id="search-person">
    <g transform="translate(0.000000,470.000000) scale(0.100000,-0.100000)"  stroke="none">
      <path d="M2070 4243 c-93 -14 -194 -37 -245 -55 -422 -146 -728 -494 -815
-929 -28 -141 -28 -344 1 -476 48 -222 135 -397 283 -566 l51 -59 -35 -27
c-232 -177 -440 -460 -569 -777 -38 -91 -37 -138 1 -174 21 -20 36 -20 615
-20 527 0 593 2 593 15 0 9 -9 44 -20 78 -36 112 -50 216 -50 369 0 161 18
273 65 413 138 409 506 736 930 829 148 32 270 38 414 22 74 -9 137 -13 140
-10 15 15 12 245 -4 340 -101 604 -616 1040 -1220 1033 -60 -1 -121 -4 -135
-6z"></path>
      <path d="M3050 2499 c-107 -11 -182 -33 -285 -83 -266 -131 -433 -353 -490
-654 -25 -130 -20 -223 22 -387 67 -261 289 -499 555 -594 112 -40 152 -46
298 -46 175 0 262 20 411 96 l62 31 176 -176 c181 -180 230 -215 299 -216 70
0 161 73 181 147 27 95 5 133 -200 338 -93 94 -169 178 -169 186 0 9 14 41 31
72 174 322 116 734 -142 1011 -194 208 -460 306 -749 275z m224 -395 c200 -52
343 -212 376 -423 35 -228 -118 -467 -348 -543 -84 -28 -228 -25 -313 6 -131
48 -226 131 -285 251 -101 205 -55 444 113 594 128 114 296 157 457 115z"></path>
    </g>
  </symbol>
  <symbol  xmlns="http://www.w3.org/2000/svg" viewBox="0 0 36 36" id="person-list">
    <path d="M19.4064 8.46564C16.3127 8.46564 13.8096 10.9688 13.8096 14.0625C13.8096 17.1563 16.3127 19.6594 19.4064 19.6594C22.5002 19.6594 25.0033 17.1563 25.0033 14.0625C25.0033 10.9688 22.5002 8.46564 19.4064 8.46564ZM19.4064 17.4094C17.5502 17.4094 16.0596 15.8906 16.0596 14.0625C16.0596 12.2344 17.5502 10.7156 19.4064 10.7156C21.2627 10.7156 22.7533 12.2063 22.7533 14.0625C22.7533 15.9188 21.2627 17.4094 19.4064 17.4094Z" ></path>
    <path d="M11.8125 2.53125H31.5V33.4688H4.5V2.53125H6.75V30.6562H9V0.28125H2.25V35.7188H33.75V0.28125H11.8125V2.53125Z" ></path>
    <path d="M14.4844 23.2312L15.6656 25.1438C16.7906 24.4969 18.0844 24.1594 19.4062 24.1594C20.7281 24.1594 22.0219 24.4969 23.1469 25.1156L24.3281 23.2031C22.8375 22.3875 21.15 21.9375 19.4062 21.9375C17.6625 21.9375 15.975 22.3875 14.4844 23.2312Z" ></path>
  </symbol>
  <symbol xmlns="http://www.w3.org/2000/svg" viewBox="0 0 640 512" id="reason">
    <path d="M488 192H336v56c0 39.7-32.3 72-72 72s-72-32.3-72-72V126.4l-64.9 39C107.8 176.9 96 197.8 96 220.2v47.3l-80 46.2C.7 322.5-4.6 342.1 4.3 357.4l80 138.6c8.8 15.3 28.4 20.5 43.7 11.7L231.4 448H368c35.3 0 64-28.7 64-64h16c17.7 0 32-14.3 32-32v-64h8c13.3 0 24-10.7 24-24v-48c0-13.3-10.7-24-24-24zm147.7-37.4L555.7 16C546.9.7 527.3-4.5 512 4.3L408.6 64H306.4c-12 0-23.7 3.4-33.9 9.7L239 94.6c-9.4 5.8-15 16.1-15 27.1V248c0 22.1 17.9 40 40 40s40-17.9 40-40v-88h184c30.9 0 56 25.1 56 56v28.5l80-46.2c15.3-8.9 20.5-28.4 11.7-43.7z"></path>
  </symbol>
  <symbol xmlns="http://www.w3.org/2000/svg" viewBox="0 0 256 256" id="minus">
    <rect fill="none" height="256" width="256"></rect>
    <path d="M216,136H40a8,8,0,0,1,0-16H216a8,8,0,0,1,0,16Z"></path>
  </symbol>
</svg>