<svg width="0" height="0" class="hidden">
    <symbol version="1.1" xmlns="http://www.w3.org/2000/svg" xmlns:xlink="http://www.w3.org/1999/xlink" viewBox="0 0 64 64" id="tick">
    <title></title>
    <desc></desc>
    <g fill="#fff" fill-rule="evenodd" id="Tick" stroke="none" stroke-width="1">
      <g fill="currentColor" id="Group" transform="translate(9.000000, 13.000000)">
        <path d="M12.5900974,34.4099026 C13.5664082,35.3862133 15.1493206,35.3862133 16.1256313,34.4099026 L44.4099026,6.12563133 C45.3862133,5.1493206 45.3862133,3.56640815 44.4099026,2.59009742 C43.4335918,1.61378669 41.8506794,1.61378669 40.8743687,2.59009742 L12.5900974,30.8743687 C11.6137867,31.8506794 11.6137867,33.4335918 12.5900974,34.4099026 Z" id="Rectangle"></path>
        <path d="M1.42893219,19.9289322 C2.40524292,18.9526215 3.98815536,18.9526215 4.96446609,19.9289322 L15.5710678,30.5355339 C16.5473785,31.5118446 16.5473785,33.0947571 15.5710678,34.0710678 C14.5947571,35.0473785 13.0118446,35.0473785 12.0355339,34.0710678 L1.42893219,23.4644661 C0.452621459,22.4881554 0.452621459,20.9052429 1.42893219,19.9289322 Z" id="Rectangle"></path>
      </g>
    </g>
  </symbol>
  <symbol xmlns="http://www.w3.org/2000/svg" viewBox="0 0 512 512" id="tick-bold">
    <path d="M480 128c0 8.188-3.125 16.38-9.375 22.62l-256 256C208.4 412.9 200.2 416 192 416s-16.38-3.125-22.62-9.375l-128-128C35.13 272.4 32 264.2 32 256c0-18.28 14.95-32 32-32c8.188 0 16.38 3.125 22.62 9.375L192 338.8l233.4-233.4C431.6 99.13 439.8 96 448 96C465.1 96 480 109.7 480 128z"></path>
  </symbol>
</svg>